<?xml version="1.0" encoding="UTF-8" standalone="no"?>
<!-- Generator: Adobe Illustrator 15.1.0, SVG Export Plug-In . SVG Version: 6.00 Build 0)  -->

<svg
   xmlns:dc="http://purl.org/dc/elements/1.1/"
   xmlns:cc="http://creativecommons.org/ns#"
   xmlns:rdf="http://www.w3.org/1999/02/22-rdf-syntax-ns#"
   xmlns:svg="http://www.w3.org/2000/svg"
   xmlns="http://www.w3.org/2000/svg"
   xmlns:xlink="http://www.w3.org/1999/xlink"
   xmlns:sodipodi="http://sodipodi.sourceforge.net/DTD/sodipodi-0.dtd"
   xmlns:inkscape="http://www.inkscape.org/namespaces/inkscape"
   version="1.1"
   x="0px"
   y="0px"
   width="3635px"
   height="768px"
   viewBox="0 0 3635 768"
   enable-background="new 0 0 3635 768"
   xml:space="preserve"
   id="svg2"
   inkscape:version="0.48.3.1 r9886"
   sodipodi:docname="background.svg"
   inkscape:export-filename="/home/dos/git/SuperDerpy/data/assets/svg/rockfarm/background.png"
   inkscape:export-xdpi="90"
   inkscape:export-ydpi="90"><metadata
   id="metadata2130"><rdf:RDF><cc:Work
       rdf:about=""><dc:format>image/svg+xml</dc:format><dc:type
         rdf:resource="http://purl.org/dc/dcmitype/StillImage" /><dc:title></dc:title></cc:Work></rdf:RDF></metadata><defs
   id="defs2128" /><sodipodi:namedview
   pagecolor="#ffffff"
   bordercolor="#666666"
   borderopacity="1"
   objecttolerance="10"
   gridtolerance="10"
   guidetolerance="10"
   inkscape:pageopacity="0"
   inkscape:pageshadow="2"
   inkscape:window-width="1280"
   inkscape:window-height="747"
   id="namedview2126"
   showgrid="false"
   inkscape:zoom="0.36440298"
   inkscape:cx="702.81842"
   inkscape:cy="206.17593"
   inkscape:window-x="0"
   inkscape:window-y="-3"
   inkscape:window-maximized="1"
   inkscape:current-layer="svg2"
   showguides="true"
   inkscape:guide-bbox="true" />





<image
   y="12.239613"
   x="-5.3368163"
   id="image26611"
   xlink:href="file:///home/dos/git/SuperDerpy/data/assets/svg/rockfarm/stage.png"
   height="768"
   width="3635"
   style="opacity:0"
   inkscape:export-xdpi="90"
   inkscape:export-ydpi="90" />



<g
   id="Layer_9"
   transform="matrix(1,0,0,1.7599926,0,-352.63371)">
</g>



<path
   style="fill:#4c694e"
   inkscape:connector-curvature="0"
   d="m 1860.6135,461.00645 c 0,0 -12.6945,-5.02734 -18.8747,0 0,0 -11.1912,-7.14412 -21.5472,0 0,0 -20.879,-7.14412 -24.5537,1.32299 0,0 -7.0154,-3.17517 -9.0198,1.32299 0,0 -7.3494,-6.87953 -9.3538,-2.91057 0,0 -7.433,-10.71619 -7.3494,1.71988 0,0 -8.1846,-1.32299 -6.0132,3.57204 0,0 -6.3472,-0.79379 -6.2637,4.49816 0,0 -2.9231,-6.35032 -6.0132,-4.23356 0,0 -3.8698,-7.29017 -9.883,-2.80683 0,0 -14.2532,-8.83543 -17.2598,0.69007 0,0 -13.1401,-0.79486 -9.1313,6.35032 0,0 -4.3428,3.61757 -2.0044,7.14518 h 6.8764 l 17.0373,-0.53025 11.1077,-0.13235 29.9823,-0.92609 30.734,0.39689 0.2505,-1.32298 29.1746,-0.48474 24.1642,1.05839 v -1.05839 l 14.4764,0.22014 v -12.43605 l -16.5362,-1.45529 z"
   id="path261-4" />
<g
   id="Layer_14"
   transform="matrix(0.66812963,0,0,1.0583881,-155.46645,-78.425515)">
	<path
   d="m 3004.667,517.334 c 0,0 17.332,-34 37.666,-21 0,0 36.333,-21.666 62,-6.333 0,0 20.334,-26 37.667,-9 0,0 6.667,-21.333 25.667,-16 l 139,6 c 0,0 11.334,3.333 31,11.333 0,0 16,-63.666 83,-39.333 0,0 23.999,-63 104.666,-19.667 0,0 1.167,-11.834 32.167,-7.834 31.2316,31.35308 53.8644,33.8045 41.3462,70.46154 l 14.8977,35.98784 z"
   id="path242"
   inkscape:connector-curvature="0"
   style="fill:#4f6a4b"
   sodipodi:nodetypes="ccccccccccccc" />
</g>

<g
   id="Layer_16"
   transform="matrix(0.66812963,0,0,1.0583881,-225.13911,-63.903288)">
	<path
   d="m 3041.667,517.334 c 0,0 2.5,-8.501 -3,-11.167 -5.5,-2.666 -8.986,-4.995 -9.334,-8.666 0,0 3.067,2.833 6.117,3.333 3.05,0.5 4.383,2.5 4.383,2.5 0,0 -1.332,-6.667 -1.166,-11.667 0,0 1.969,4.333 3.567,9.5 0,0 2.266,13.334 3.766,16.167 h -4.333 z"
   id="path254"
   inkscape:connector-curvature="0"
   style="fill:#252c19" />
	<path
   d="m 3061.5,485.167 c 0,0 3.499,7.834 8.333,9.167 4.834,1.333 7,2.5 8.167,6 1.167,3.5 4.667,8 4.167,17 h 7.333 c 0,0 -1.834,-6.833 -4.167,-10.333 -2.333,-3.5 -5.5,-6.333 2.667,-12.5 8.167,-6.167 11.834,-15.501 9.167,-17.834 0,0 -5.834,11.166 -10.834,15 -5,3.834 -7.667,1.334 -10,-4.333 -2.333,-5.667 -3.832,-11.667 -8.166,-11.667 0,0 5.96,8.358 6.833,14.834 0,0 -4.667,3.999 -13.5,-5.334 z"
   id="path256"
   inkscape:connector-curvature="0"
   style="fill:#252c19" />
	<path
   d="m 3296.5,517.334 c 0,0 -3.166,-14.334 -9.166,-19.834 0,0 -16.5,3.334 -19,-8.833 -2.5,-12.167 7.999,-13 9.833,-12.667 1.834,0.333 6.205,-3.67 3.353,-6.085 0,0 -1.185,-17.914 -0.519,-20.248 0.666,-2.334 2.833,-2.834 2.833,-4.834 0,0 25.333,-2.167 26.5,-12.5 0,0 -6.001,5.5 -15.667,7.167 0,0 5.333,-7.834 4,-12.667 0,0 -3.833,10.5 -10.333,13.167 0,0 -5.666,1.167 -9.333,1 -3.667,-0.167 -2.666,1.335 -2.833,7.501 -0.167,6.166 1.499,23.498 -11.001,25.332 0,0 -7.834,-7 -8,-16.5 0,0 -7.834,1.667 -12,0.667 0,0 -4.5,-3.333 -4.833,-11.333 -0.333,-8 0.667,-10.667 0.667,-10.667 0,0 12.832,-14.667 8.999,-24 0,0 -3.167,15.5 -13,21.167 0,0 -11.166,-9.334 -18.833,-20.167 0,0 0.166,6.667 16.666,22.667 0,0 -2.169,19.558 1.334,26 0,0 -12,8.666 -21,11 -9,2.334 -13.334,-6.332 -12.167,-17.666 0,0 -5.333,12.166 1.167,18.666 0,0 -13.352,3.426 -23.843,-8.12 0,0 9.648,18.101 37.343,10.454 0,0 16.334,-7.666 19.5,-10 0,0 12.833,-3.334 14.333,6.166 1.5,9.5 -1.667,12.666 -4,14.5 l -0.167,1.5 c 0,0 7.5,7.666 15.5,12.5 8,4.834 9.334,16.667 9.334,16.667 h 24.333 z"
   id="path258"
   inkscape:connector-curvature="0"
   style="fill:#252c19" />
</g>
<g
   id="Layer_18"
   transform="matrix(0.66812963,0,0,1.0583881,-115.12965,-63.903288)">
	<path
   d="m 2583.75,498.25 c 0,0 19,-4.75 28.25,0 0,0 16.75,-6.75 32.25,0 0,0 31.25,-6.75 36.75,1.25 0,0 10.5,-3 13.5,1.25 0,0 11,-6.5 14,-2.75 0,0 11.125,-10.125 11,1.625 0,0 12.25,-1.25 9,3.375 0,0 9.5,-0.75 9.375,4.25 0,0 4.375,-6 9,-4 0,0 5.792,-6.888 14.792,-2.652 0,0 21.333,-8.348 25.833,0.652 0,0 19.667,-0.751 13.667,6 0,0 6.5,3.418 3,6.751 h -10.292 l -25.5,-0.501 -16.625,-0.125 -44.875,-0.875 -46,0.375 -0.375,-1.25 -43.666,-0.458 -36.167,1 v -1 L 2559,511.375 v -11.75 l 24.75,-1.375 z"
   id="path261"
   inkscape:connector-curvature="0"
   style="fill:#4c694e" />
</g>
<g
   id="Layer_19"
   transform="matrix(0.66812963,0,0,1.0583881,-30.789049,-60.998843)">
	<path
   d="m 2539.167,468.667 c 0,0 -6,-3.333 2.5,-13 8.5,-9.667 22.166,-15.833 29.5,-8 7.334,7.833 -5.833,17.166 3.667,14.166 9.5,-3 24.167,-1.833 24.5,9.667 0.333,11.5 -4.333,12.833 -4.333,12.833 0,0 -5.167,23.501 -14.167,15.834 0,0 -8.166,14.574 -21.333,1.537 0,0 -9.5,6.63 -12.5,1.463 0,0 -9,10.833 -13.667,-2.167 0,0 -13.667,-2.667 -9.5,-15.167 0,0 0.166,-18.332 15.333,-17.166 z"
   id="path264"
   inkscape:connector-curvature="0"
   style="fill:#3f5f35" />
	<path
   d="m 2630.833,497.334 c 0,0 -10.499,2.166 -2.166,-9.167 8.333,-11.333 36.167,-17.167 49,-3 12.833,14.167 -9,26.336 -25,26.168 -16,-0.168 -26.168,-4.668 -21.834,-14.001 z"
   id="path266"
   inkscape:connector-curvature="0"
   style="fill:#304027" />
	<path
   d="m 2641.667,487.667 c 0,0 -0.333,9.167 -1.833,9.167 0,0 -2.166,-0.335 -3.333,-4.584 0,0 -0.668,8.917 5.166,11.417 5.834,2.5 8.833,4.84 8.5,7.67 h 4.334 v -4.67 c 0,0 4,-2.497 3.5,-7.165 0,0 4.333,-2.167 6.833,-6.501 0,0 -4,4 -6.5,3.833 0,0 -1.167,-5.834 -1.167,-9.167 0,0 -0.334,10.5 -2.5,13.667 -2.166,3.167 -7.812,2.689 -12.5,0.167 0,0 -2.166,-2.666 -0.833,-4.5 1.333,-1.834 0.833,-8.168 0.333,-9.334 z"
   id="path268"
   inkscape:connector-curvature="0"
   style="fill:#222c17" />
	<path
   d="m 2557.334,511.337 v -13.836 c 0,0 -13.499,-5.516 -12.333,-20.675 0,0 2.666,13.837 13.333,17.256 0,0 3.25,-14.831 15,-18.331 0,0 -7.25,6.416 -8.5,12.416 0,0 8.999,2.918 14.333,-1.666 0,0 -0.5,6.584 -15,5 0,0 -3.147,-1.327 -2.97,19.836 h -3.863 z"
   id="path270"
   inkscape:connector-curvature="0"
   style="fill:#222c17" />
</g>























<path
   style="fill:#4c694e"
   inkscape:connector-curvature="0"
   d="m 1222.5509,459.26485 c 0,0 -12.6945,-5.02735 -18.8747,0 0,0 -11.1912,-7.14412 -21.5472,0 0,0 -20.879,-7.14412 -24.5537,1.32299 0,0 -7.0154,-3.17517 -9.0198,1.32299 0,0 -7.3494,-6.87953 -9.3538,-2.91057 0,0 -7.4329,-10.71619 -7.3494,1.71988 0,0 -8.1846,-1.32299 -6.0132,3.57206 0,0 -6.3472,-0.79379 -6.2637,4.49814 0,0 -2.9231,-6.35032 -6.0132,-4.23354 0,0 -3.8698,-7.29019 -9.883,-2.80686 0,0 -14.2532,-8.83542 -17.2597,0.69008 0,0 -13.1402,-0.79485 -9.1314,6.35032 0,0 -4.3428,3.61757 -2.0044,7.14518 h 6.8764 l 17.0373,-0.53025 11.1077,-0.13235 29.9823,-0.92609 30.734,0.39689 0.2505,-1.32298 29.1746,-0.48474 24.1642,1.05839 V 472.936 l 14.4764,0.22014 v -12.43605 l -16.5362,-1.45529 z"
   id="path261-4-5" /><g
   id="Layer_14-7"
   transform="matrix(0.66812963,0,0,1.0583881,-793.52902,-80.167116)"><path
     d="m 3004.667,517.334 c 0,0 17.332,-34 37.666,-21 0,0 36.333,-21.666 62,-6.333 0,0 20.334,-26 37.667,-9 0,0 6.667,-21.333 25.667,-16 l 139,6 c 0,0 11.334,3.333 31,11.333 0,0 16,-63.666 83,-39.333 0,0 23.999,-63 104.666,-19.667 0,0 1.167,-11.834 32.167,-7.834 31.2316,31.35308 53.8644,33.8045 41.3462,70.46154 l 14.8977,35.98784 z"
     id="path242-4"
     inkscape:connector-curvature="0"
     style="fill:#4f6a4b"
     sodipodi:nodetypes="ccccccccccccc" /></g><g
   id="Layer_15-9"
   transform="matrix(0.66812963,0,0,1.0583881,-817.36441,-77.26267)"><path
     d="m 3332.667,517.334 c 0,0 50,-36.334 98.667,-5.334 0,0 40.667,-58 106,-25 0,0 4.742,-21.88 38.204,-24.273 8.0998,18.20233 64.3838,39.48159 46.1796,57.68392 z"
     id="path247-5"
     inkscape:connector-curvature="0"
     style="fill:#474929"
     sodipodi:nodetypes="cccccc" /><path
     d="m 3056.167,502 c 0,0 -8.167,9.333 -15.667,5.833 0,0 -10.667,8.5 -18.5,1.5 -7.833,-7 0.667,-10.666 0.667,-10.666 0,0 -18.667,-5.666 -6.167,-13 12.5,-7.334 21.833,0 21.833,0 0,0 11.501,-4.167 16.334,2.333 4.833,6.5 1.5,14 1.5,14 z"
     id="path249-6"
     inkscape:connector-curvature="0"
     style="fill:#304122" /><path
     d="m 3053.5,490.5 c 0,0 -14.333,-17.667 1.167,-25 15.5,-7.333 27.667,0 26,3 0,0 23.999,-5.5 28.666,4 4.667,9.5 -6.332,26.166 -14.666,26.833 0,0 -7.833,7.666 -14,0 0,0 -7.833,9.48 -18,3.407 0,0 -18,5.927 -19,-3.073 -1,-9 9.833,-9.167 9.833,-9.167 z"
     id="path251-4"
     inkscape:connector-curvature="0"
     style="fill:#465f37" /></g><g
   id="Layer_16-5"
   transform="matrix(0.66812963,0,0,1.0583881,-821.03138,-71.45378)"><path
     d="m 3041.667,517.334 c 0,0 2.5,-8.501 -3,-11.167 -5.5,-2.666 -8.986,-4.995 -9.334,-8.666 0,0 3.067,2.833 6.117,3.333 3.05,0.5 4.383,2.5 4.383,2.5 0,0 -1.332,-6.667 -1.166,-11.667 0,0 1.969,4.333 3.567,9.5 0,0 2.266,13.334 3.766,16.167 h -4.333 z"
     id="path254-2"
     inkscape:connector-curvature="0"
     style="fill:#252c19" /><path
     d="m 3061.5,485.167 c 0,0 3.499,7.834 8.333,9.167 4.834,1.333 7,2.5 8.167,6 1.167,3.5 4.667,8 4.167,17 h 7.333 c 0,0 -1.834,-6.833 -4.167,-10.333 -2.333,-3.5 -5.5,-6.333 2.667,-12.5 8.167,-6.167 11.834,-15.501 9.167,-17.834 0,0 -5.834,11.166 -10.834,15 -5,3.834 -7.667,1.334 -10,-4.333 -2.333,-5.667 -3.832,-11.667 -8.166,-11.667 0,0 5.96,8.358 6.833,14.834 0,0 -4.667,3.999 -13.5,-5.334 z"
     id="path256-4"
     inkscape:connector-curvature="0"
     style="fill:#252c19" /><path
     d="m 3296.5,517.334 c 0,0 -3.166,-14.334 -9.166,-19.834 0,0 -16.5,3.334 -19,-8.833 -2.5,-12.167 7.999,-13 9.833,-12.667 1.834,0.333 6.205,-3.67 3.353,-6.085 0,0 -1.185,-17.914 -0.519,-20.248 0.666,-2.334 2.833,-2.834 2.833,-4.834 0,0 25.333,-2.167 26.5,-12.5 0,0 -6.001,5.5 -15.667,7.167 0,0 5.333,-7.834 4,-12.667 0,0 -3.833,10.5 -10.333,13.167 0,0 -5.666,1.167 -9.333,1 -3.667,-0.167 -2.666,1.335 -2.833,7.501 -0.167,6.166 1.499,23.498 -11.001,25.332 0,0 -7.834,-7 -8,-16.5 0,0 -7.834,1.667 -12,0.667 0,0 -4.5,-3.333 -4.833,-11.333 -0.333,-8 0.667,-10.667 0.667,-10.667 0,0 12.832,-14.667 8.999,-24 0,0 -3.167,15.5 -13,21.167 0,0 -11.166,-9.334 -18.833,-20.167 0,0 0.166,6.667 16.666,22.667 0,0 -2.169,19.558 1.334,26 0,0 -12,8.666 -21,11 -9,2.334 -13.334,-6.332 -12.167,-17.666 0,0 -5.333,12.166 1.167,18.666 0,0 -13.352,3.426 -23.843,-8.12 0,0 9.648,18.101 37.343,10.454 0,0 16.334,-7.666 19.5,-10 0,0 12.833,-3.334 14.333,6.166 1.5,9.5 -1.667,12.666 -4,14.5 l -0.167,1.5 c 0,0 7.5,7.666 15.5,12.5 8,4.834 9.334,16.667 9.334,16.667 h 24.333 z"
     id="path258-6"
     inkscape:connector-curvature="0"
     style="fill:#252c19" /></g><g
   id="Layer_18-2"
   transform="matrix(0.66812963,0,0,1.0583881,-753.19223,-65.644906)"><path
     d="m 2583.75,498.25 c 0,0 19,-4.75 28.25,0 0,0 16.75,-6.75 32.25,0 0,0 31.25,-6.75 36.75,1.25 0,0 10.5,-3 13.5,1.25 0,0 11,-6.5 14,-2.75 0,0 11.125,-10.125 11,1.625 0,0 12.25,-1.25 9,3.375 0,0 9.5,-0.75 9.375,4.25 0,0 4.375,-6 9,-4 0,0 5.792,-6.888 14.792,-2.652 0,0 21.333,-8.348 25.833,0.652 0,0 19.667,-0.751 13.667,6 0,0 6.5,3.418 3,6.751 h -10.292 l -25.5,-0.501 -16.625,-0.125 -44.875,-0.875 -46,0.375 -0.375,-1.25 -43.666,-0.458 -36.167,1 v -1 L 2559,511.375 v -11.75 l 24.75,-1.375 z"
     id="path261-2"
     inkscape:connector-curvature="0"
     style="fill:#4c694e" /></g><g
   id="Layer_19-0"
   transform="matrix(0.66812963,0,0,1.0583881,-668.85162,-62.740443)"><path
     d="m 2539.167,468.667 c 0,0 -6,-3.333 2.5,-13 8.5,-9.667 22.166,-15.833 29.5,-8 7.334,7.833 -5.833,17.166 3.667,14.166 9.5,-3 24.167,-1.833 24.5,9.667 0.333,11.5 -4.333,12.833 -4.333,12.833 0,0 -5.167,23.501 -14.167,15.834 0,0 -8.166,14.574 -21.333,1.537 0,0 -9.5,6.63 -12.5,1.463 0,0 -9,10.833 -13.667,-2.167 0,0 -13.667,-2.667 -9.5,-15.167 0,0 0.166,-18.332 15.333,-17.166 z"
     id="path264-8"
     inkscape:connector-curvature="0"
     style="fill:#3f5f35" /><path
     d="m 2630.833,497.334 c 0,0 -10.499,2.166 -2.166,-9.167 8.333,-11.333 36.167,-17.167 49,-3 12.833,14.167 -9,26.336 -25,26.168 -16,-0.168 -26.168,-4.668 -21.834,-14.001 z"
     id="path266-6"
     inkscape:connector-curvature="0"
     style="fill:#304027" /><path
     d="m 2641.667,487.667 c 0,0 -0.333,9.167 -1.833,9.167 0,0 -2.166,-0.335 -3.333,-4.584 0,0 -0.668,8.917 5.166,11.417 5.834,2.5 8.833,4.84 8.5,7.67 h 4.334 v -4.67 c 0,0 4,-2.497 3.5,-7.165 0,0 4.333,-2.167 6.833,-6.501 0,0 -4,4 -6.5,3.833 0,0 -1.167,-5.834 -1.167,-9.167 0,0 -0.334,10.5 -2.5,13.667 -2.166,3.167 -7.812,2.689 -12.5,0.167 0,0 -2.166,-2.666 -0.833,-4.5 1.333,-1.834 0.833,-8.168 0.333,-9.334 z"
     id="path268-7"
     inkscape:connector-curvature="0"
     style="fill:#222c17" /><path
     d="m 2557.334,511.337 v -13.836 c 0,0 -13.499,-5.516 -12.333,-20.675 0,0 2.666,13.837 13.333,17.256 0,0 3.25,-14.831 15,-18.331 0,0 -7.25,6.416 -8.5,12.416 0,0 8.999,2.918 14.333,-1.666 0,0 -0.5,6.584 -15,5 0,0 -3.147,-1.327 -2.97,19.836 h -3.863 z"
     id="path270-4"
     inkscape:connector-curvature="0"
     style="fill:#222c17" /></g><path
   style="fill:#4c694e"
   inkscape:connector-curvature="0"
   d="m 701.83936,473.78706 c 0,0 -12.69446,-5.02733 -18.87466,0 0,0 -11.19119,-7.14411 -21.5472,0 0,0 -20.87905,-7.14411 -24.55377,1.32299 0,0 -7.01536,-3.17517 -9.01975,1.32298 0,0 -7.34942,-6.87951 -9.35381,-2.91057 0,0 -7.43294,-10.71617 -7.34943,1.71989 0,0 -8.18458,-1.32299 -6.01316,3.57206 0,0 -6.34723,-0.79379 -6.26372,4.49815 0,0 -2.92306,-6.35033 -6.01316,-4.23355 0,0 -3.86981,-7.29017 -9.88298,-2.80686 0,0 -14.25321,-8.83541 -17.25979,0.69008 0,0 -13.14011,-0.79485 -9.13133,6.35033 0,0 -4.34284,3.61756 -2.00439,7.14519 h 6.87639 l 17.03731,-0.53027 11.10765,-0.13235 29.98232,-0.92609 30.73396,0.39689 0.25055,-1.32297 29.17457,-0.48475 24.16424,1.05839 v -1.05834 l 14.47637,0.22016 v -12.43607 l -16.53621,-1.45529 z"
   id="path261-4-7" /><g
   id="Layer_14-75"
   transform="matrix(0.66812963,0,0,1.0583881,-1314.2405,-65.644889)"><path
     d="m 3004.667,517.334 c 0,0 17.332,-34 37.666,-21 0,0 36.333,-21.666 62,-6.333 0,0 20.334,-26 37.667,-9 0,0 6.667,-21.333 25.667,-16 l 139,6 c 0,0 11.334,3.333 31,11.333 0,0 16,-63.666 83,-39.333 0,0 23.999,-63 104.666,-19.667 0,0 1.167,-11.834 32.167,-7.834 31.2316,31.35308 53.8644,33.8045 41.3462,70.46154 l 14.8977,35.98784 z"
     id="path242-1"
     inkscape:connector-curvature="0"
     style="fill:#4f6a4b"
     sodipodi:nodetypes="ccccccccccccc" /></g><g
   id="Layer_15-4"
   transform="matrix(0.66812963,0,0,1.0583881,-1380.2462,-59.836016)"><path
     d="m 3252.333,488 c 0,0 -9.333,10.667 -22.333,0 0,0 -25,20 -30,0 0,0 -44.667,12.666 -36,-6.667 0,0 -20,-15.667 1,-17 0,0 -10,-19.333 21,-18.333 31,1 15.067,-18.666 18.2,-34.333 3.133,-15.667 26.466,-23.668 51.133,-20.334 24.667,3.334 20.667,20.334 20.667,20.334 0,0 11.5,1.083 10.75,7.583 0,0 2.5,-0.75 4.75,0.5 0,0 14.5,-18.75 28.25,7.75 13.75,26.5 -8.75,43 -8.75,43 0,0 3.5,8 -5.5,12.5 -9,4.5 -13.75,-1.75 -13.75,-1.75 0,0 -14.75,20.75 -26.75,7.5 L 3252.333,488 z"
     id="path245-87"
     inkscape:connector-curvature="0"
     style="fill:#566235" /><path
     d="m 3332.667,517.334 c 0,0 50,-36.334 98.667,-5.334 0,0 40.667,-58 106,-25 0,0 4.742,-21.88 38.204,-24.273 8.0998,18.20233 64.3838,39.48159 46.1796,57.68392 z"
     id="path247-4"
     inkscape:connector-curvature="0"
     style="fill:#474929"
     sodipodi:nodetypes="cccccc" /><path
     d="m 3056.167,502 c 0,0 -8.167,9.333 -15.667,5.833 0,0 -10.667,8.5 -18.5,1.5 -7.833,-7 0.667,-10.666 0.667,-10.666 0,0 -18.667,-5.666 -6.167,-13 12.5,-7.334 21.833,0 21.833,0 0,0 11.501,-4.167 16.334,2.333 4.833,6.5 1.5,14 1.5,14 z"
     id="path249-4"
     inkscape:connector-curvature="0"
     style="fill:#304122" /><path
     d="m 3053.5,490.5 c 0,0 -14.333,-17.667 1.167,-25 15.5,-7.333 27.667,0 26,3 0,0 23.999,-5.5 28.666,4 4.667,9.5 -6.332,26.166 -14.666,26.833 0,0 -7.833,7.666 -14,0 0,0 -7.833,9.48 -18,3.407 0,0 -18,5.927 -19,-3.073 -1,-9 9.833,-9.167 9.833,-9.167 z"
     id="path251-1"
     inkscape:connector-curvature="0"
     style="fill:#465f37" /></g><g
   id="Layer_16-4"
   transform="matrix(0.66812963,0,0,1.0583881,-1383.9132,-51.12268)"><path
     d="m 3041.667,517.334 c 0,0 2.5,-8.501 -3,-11.167 -5.5,-2.666 -8.986,-4.995 -9.334,-8.666 0,0 3.067,2.833 6.117,3.333 3.05,0.5 4.383,2.5 4.383,2.5 0,0 -1.332,-6.667 -1.166,-11.667 0,0 1.969,4.333 3.567,9.5 0,0 2.266,13.334 3.766,16.167 h -4.333 z"
     id="path254-8"
     inkscape:connector-curvature="0"
     style="fill:#252c19" /><path
     d="m 3061.5,485.167 c 0,0 3.499,7.834 8.333,9.167 4.834,1.333 7,2.5 8.167,6 1.167,3.5 4.667,8 4.167,17 h 7.333 c 0,0 -1.834,-6.833 -4.167,-10.333 -2.333,-3.5 -5.5,-6.333 2.667,-12.5 8.167,-6.167 11.834,-15.501 9.167,-17.834 0,0 -5.834,11.166 -10.834,15 -5,3.834 -7.667,1.334 -10,-4.333 -2.333,-5.667 -3.832,-11.667 -8.166,-11.667 0,0 5.96,8.358 6.833,14.834 0,0 -4.667,3.999 -13.5,-5.334 z"
     id="path256-6"
     inkscape:connector-curvature="0"
     style="fill:#252c19" /><path
     d="m 3296.5,517.334 c 0,0 -3.166,-14.334 -9.166,-19.834 0,0 -16.5,3.334 -19,-8.833 -2.5,-12.167 7.999,-13 9.833,-12.667 1.834,0.333 6.205,-3.67 3.353,-6.085 0,0 -1.185,-17.914 -0.519,-20.248 0.666,-2.334 2.833,-2.834 2.833,-4.834 0,0 25.333,-2.167 26.5,-12.5 0,0 -6.001,5.5 -15.667,7.167 0,0 5.333,-7.834 4,-12.667 0,0 -3.833,10.5 -10.333,13.167 0,0 -5.666,1.167 -9.333,1 -3.667,-0.167 -2.666,1.335 -2.833,7.501 -0.167,6.166 1.499,23.498 -11.001,25.332 0,0 -7.834,-7 -8,-16.5 0,0 -7.834,1.667 -12,0.667 0,0 -4.5,-3.333 -4.833,-11.333 -0.333,-8 0.667,-10.667 0.667,-10.667 0,0 12.832,-14.667 8.999,-24 0,0 -3.167,15.5 -13,21.167 0,0 -11.166,-9.334 -18.833,-20.167 0,0 0.166,6.667 16.666,22.667 0,0 -2.169,19.558 1.334,26 0,0 -12,8.666 -21,11 -9,2.334 -13.334,-6.332 -12.167,-17.666 0,0 -5.333,12.166 1.167,18.666 0,0 -13.352,3.426 -23.843,-8.12 0,0 9.648,18.101 37.343,10.454 0,0 16.334,-7.666 19.5,-10 0,0 12.833,-3.334 14.333,6.166 1.5,9.5 -1.667,12.666 -4,14.5 l -0.167,1.5 c 0,0 7.5,7.666 15.5,12.5 8,4.834 9.334,16.667 9.334,16.667 h 24.333 z"
     id="path258-1"
     inkscape:connector-curvature="0"
     style="fill:#252c19" /></g><g
   id="Layer_18-4"
   transform="matrix(0.66812963,0,0,1.0583881,-1273.9037,-51.12268)"><path
     d="m 2583.75,498.25 c 0,0 19,-4.75 28.25,0 0,0 16.75,-6.75 32.25,0 0,0 31.25,-6.75 36.75,1.25 0,0 10.5,-3 13.5,1.25 0,0 11,-6.5 14,-2.75 0,0 11.125,-10.125 11,1.625 0,0 12.25,-1.25 9,3.375 0,0 9.5,-0.75 9.375,4.25 0,0 4.375,-6 9,-4 0,0 5.792,-6.888 14.792,-2.652 0,0 21.333,-8.348 25.833,0.652 0,0 19.667,-0.751 13.667,6 0,0 6.5,3.418 3,6.751 h -10.292 l -25.5,-0.501 -16.625,-0.125 -44.875,-0.875 -46,0.375 -0.375,-1.25 -43.666,-0.458 -36.167,1 v -1 L 2559,511.375 v -11.75 l 24.75,-1.375 z"
     id="path261-7"
     inkscape:connector-curvature="0"
     style="fill:#4c694e" /></g><g
   id="Layer_19-1"
   transform="matrix(0.66812963,0,0,1.0583881,-1189.5631,-48.218234)"><path
     d="m 2539.167,468.667 c 0,0 -6,-3.333 2.5,-13 8.5,-9.667 22.166,-15.833 29.5,-8 7.334,7.833 -5.833,17.166 3.667,14.166 9.5,-3 24.167,-1.833 24.5,9.667 0.333,11.5 -4.333,12.833 -4.333,12.833 0,0 -5.167,23.501 -14.167,15.834 0,0 -8.166,14.574 -21.333,1.537 0,0 -9.5,6.63 -12.5,1.463 0,0 -9,10.833 -13.667,-2.167 0,0 -13.667,-2.667 -9.5,-15.167 0,0 0.166,-18.332 15.333,-17.166 z"
     id="path264-9"
     inkscape:connector-curvature="0"
     style="fill:#3f5f35" /><path
     d="m 2630.833,497.334 c 0,0 -10.499,2.166 -2.166,-9.167 8.333,-11.333 36.167,-17.167 49,-3 12.833,14.167 -9,26.336 -25,26.168 -16,-0.168 -26.168,-4.668 -21.834,-14.001 z"
     id="path266-5"
     inkscape:connector-curvature="0"
     style="fill:#304027" /><path
     d="m 2641.667,487.667 c 0,0 -0.333,9.167 -1.833,9.167 0,0 -2.166,-0.335 -3.333,-4.584 0,0 -0.668,8.917 5.166,11.417 5.834,2.5 8.833,4.84 8.5,7.67 h 4.334 v -4.67 c 0,0 4,-2.497 3.5,-7.165 0,0 4.333,-2.167 6.833,-6.501 0,0 -4,4 -6.5,3.833 0,0 -1.167,-5.834 -1.167,-9.167 0,0 -0.334,10.5 -2.5,13.667 -2.166,3.167 -7.812,2.689 -12.5,0.167 0,0 -2.166,-2.666 -0.833,-4.5 1.333,-1.834 0.833,-8.168 0.333,-9.334 z"
     id="path268-8"
     inkscape:connector-curvature="0"
     style="fill:#222c17" /><path
     d="m 2557.334,511.337 v -13.836 c 0,0 -13.499,-5.516 -12.333,-20.675 0,0 2.666,13.837 13.333,17.256 0,0 3.25,-14.831 15,-18.331 0,0 -7.25,6.416 -8.5,12.416 0,0 8.999,2.918 14.333,-1.666 0,0 -0.5,6.584 -15,5 0,0 -3.147,-1.327 -2.97,19.836 h -3.863 z"
     id="path270-5"
     inkscape:connector-curvature="0"
     style="fill:#222c17" /></g><path
   style="fill:#4c694e"
   inkscape:connector-curvature="0"
   d="m 419.8405,465.07374 c 0,0 12.69446,-5.02734 18.87466,0 0,0 11.19117,-7.14412 21.54718,0 0,0 20.87905,-7.14412 24.55377,1.32299 0,0 7.01536,-3.17517 9.01975,1.32299 0,0 7.34942,-6.87953 9.35381,-2.91057 0,0 7.43294,-10.71619 7.34943,1.71988 0,0 8.18458,-1.32299 6.01316,3.57204 0,0 6.34723,-0.79379 6.26372,4.49816 0,0 2.92307,-6.35032 6.01316,-4.23356 0,0 3.86981,-7.29017 9.88298,-2.80683 0,0 14.25321,-8.83543 17.25979,0.69007 0,0 13.14011,-0.79486 9.13133,6.35032 0,0 4.34284,3.61757 2.00439,7.14518 h -6.87639 l -17.03731,-0.53025 -11.10765,-0.13235 -29.98232,-0.92609 -30.73396,0.39689 -0.25055,-1.32298 -29.17455,-0.48474 -24.16424,1.05839 v -1.05839 l -14.47637,0.22014 v -12.43605 l 16.53621,-1.45529 z"
   id="path261-4-8" /><g
   id="Layer_14-2"
   transform="matrix(-0.66812963,0,0,1.0583881,2435.9204,-74.358225)"><path
     d="m 3004.667,517.334 c 0,0 17.332,-34 37.666,-21 0,0 36.333,-21.666 62,-6.333 0,0 20.334,-26 37.667,-9 0,0 6.667,-21.333 25.667,-16 l 139,6 c 0,0 11.334,3.333 31,11.333 0,0 16,-63.666 83,-39.333 0,0 23.999,-63 104.666,-19.667 0,0 1.167,-11.834 32.167,-7.834 31.2316,31.35308 53.8644,33.8045 41.3462,70.46154 l 14.8977,35.98784 z"
     id="path242-12"
     inkscape:connector-curvature="0"
     style="fill:#4f6a4b"
     sodipodi:nodetypes="ccccccccccccc" /></g><g
   id="Layer_15-43"
   transform="matrix(-0.66812963,0,0,1.0583881,2501.926,-68.549334)"><path
     d="m 3332.667,517.334 c 0,0 50,-36.334 98.667,-5.334 0,0 40.667,-58 106,-25 0,0 4.742,-21.88 38.204,-24.273 8.0998,18.20233 64.3838,39.48159 46.1796,57.68392 z"
     id="path247-2"
     inkscape:connector-curvature="0"
     style="fill:#474929"
     sodipodi:nodetypes="cccccc" /><path
     d="m 3056.167,502 c 0,0 -8.167,9.333 -15.667,5.833 0,0 -10.667,8.5 -18.5,1.5 -7.833,-7 0.667,-10.666 0.667,-10.666 0,0 -18.667,-5.666 -6.167,-13 12.5,-7.334 21.833,0 21.833,0 0,0 11.501,-4.167 16.334,2.333 4.833,6.5 1.5,14 1.5,14 z"
     id="path249-0"
     inkscape:connector-curvature="0"
     style="fill:#304122" /><path
     d="m 3053.5,490.5 c 0,0 -14.333,-17.667 1.167,-25 15.5,-7.333 27.667,0 26,3 0,0 23.999,-5.5 28.666,4 4.667,9.5 -6.332,26.166 -14.666,26.833 0,0 -7.833,7.666 -14,0 0,0 -7.833,9.48 -18,3.407 0,0 -18,5.927 -19,-3.073 -1,-9 9.833,-9.167 9.833,-9.167 z"
     id="path251-7"
     inkscape:connector-curvature="0"
     style="fill:#465f37" /></g><g
   id="Layer_16-9"
   transform="matrix(-0.66812963,0,0,1.0583881,2505.5931,-59.836016)"><path
     d="m 3041.667,517.334 c 0,0 2.5,-8.501 -3,-11.167 -5.5,-2.666 -8.986,-4.995 -9.334,-8.666 0,0 3.067,2.833 6.117,3.333 3.05,0.5 4.383,2.5 4.383,2.5 0,0 -1.332,-6.667 -1.166,-11.667 0,0 1.969,4.333 3.567,9.5 0,0 2.266,13.334 3.766,16.167 h -4.333 z"
     id="path254-7"
     inkscape:connector-curvature="0"
     style="fill:#252c19" /><path
     d="m 3061.5,485.167 c 0,0 3.499,7.834 8.333,9.167 4.834,1.333 7,2.5 8.167,6 1.167,3.5 4.667,8 4.167,17 h 7.333 c 0,0 -1.834,-6.833 -4.167,-10.333 -2.333,-3.5 -5.5,-6.333 2.667,-12.5 8.167,-6.167 11.834,-15.501 9.167,-17.834 0,0 -5.834,11.166 -10.834,15 -5,3.834 -7.667,1.334 -10,-4.333 -2.333,-5.667 -3.832,-11.667 -8.166,-11.667 0,0 5.96,8.358 6.833,14.834 0,0 -4.667,3.999 -13.5,-5.334 z"
     id="path256-42"
     inkscape:connector-curvature="0"
     style="fill:#252c19" /><path
     d="m 3296.5,517.334 c 0,0 -3.166,-14.334 -9.166,-19.834 0,0 -16.5,3.334 -19,-8.833 -2.5,-12.167 7.999,-13 9.833,-12.667 1.834,0.333 6.205,-3.67 3.353,-6.085 0,0 -1.185,-17.914 -0.519,-20.248 0.666,-2.334 2.833,-2.834 2.833,-4.834 0,0 25.333,-2.167 26.5,-12.5 0,0 -6.001,5.5 -15.667,7.167 0,0 5.333,-7.834 4,-12.667 0,0 -3.833,10.5 -10.333,13.167 0,0 -5.666,1.167 -9.333,1 -3.667,-0.167 -2.666,1.335 -2.833,7.501 -0.167,6.166 1.499,23.498 -11.001,25.332 0,0 -7.834,-7 -8,-16.5 0,0 -7.834,1.667 -12,0.667 0,0 -4.5,-3.333 -4.833,-11.333 -0.333,-8 0.667,-10.667 0.667,-10.667 0,0 12.832,-14.667 8.999,-24 0,0 -3.167,15.5 -13,21.167 0,0 -11.166,-9.334 -18.833,-20.167 0,0 0.166,6.667 16.666,22.667 0,0 -2.169,19.558 1.334,26 0,0 -12,8.666 -21,11 -9,2.334 -13.334,-6.332 -12.167,-17.666 0,0 -5.333,12.166 1.167,18.666 0,0 -13.352,3.426 -23.843,-8.12 0,0 9.648,18.101 37.343,10.454 0,0 16.334,-7.666 19.5,-10 0,0 12.833,-3.334 14.333,6.166 1.5,9.5 -1.667,12.666 -4,14.5 l -0.167,1.5 c 0,0 7.5,7.666 15.5,12.5 8,4.834 9.334,16.667 9.334,16.667 h 24.333 z"
     id="path258-4"
     inkscape:connector-curvature="0"
     style="fill:#252c19" /></g><g
   id="Layer_18-21"
   transform="matrix(-0.66812963,0,0,1.0583881,2395.5836,-59.836016)"><path
     d="m 2583.75,498.25 c 0,0 19,-4.75 28.25,0 0,0 16.75,-6.75 32.25,0 0,0 31.25,-6.75 36.75,1.25 0,0 10.5,-3 13.5,1.25 0,0 11,-6.5 14,-2.75 0,0 11.125,-10.125 11,1.625 0,0 12.25,-1.25 9,3.375 0,0 9.5,-0.75 9.375,4.25 0,0 4.375,-6 9,-4 0,0 5.792,-6.888 14.792,-2.652 0,0 21.333,-8.348 25.833,0.652 0,0 19.667,-0.751 13.667,6 0,0 6.5,3.418 3,6.751 h -10.292 l -25.5,-0.501 -16.625,-0.125 -44.875,-0.875 -46,0.375 -0.375,-1.25 -43.666,-0.458 -36.167,1 v -1 L 2559,511.375 v -11.75 l 24.75,-1.375 z"
     id="path261-8"
     inkscape:connector-curvature="0"
     style="fill:#4c694e" /></g><g
   id="Layer_19-6"
   transform="matrix(-0.66812963,0,0,1.0583881,2311.243,-56.93157)"><path
     d="m 2539.167,468.667 c 0,0 -6,-3.333 2.5,-13 8.5,-9.667 22.166,-15.833 29.5,-8 7.334,7.833 -5.833,17.166 3.667,14.166 9.5,-3 24.167,-1.833 24.5,9.667 0.333,11.5 -4.333,12.833 -4.333,12.833 0,0 -5.167,23.501 -14.167,15.834 0,0 -8.166,14.574 -21.333,1.537 0,0 -9.5,6.63 -12.5,1.463 0,0 -9,10.833 -13.667,-2.167 0,0 -13.667,-2.667 -9.5,-15.167 0,0 0.166,-18.332 15.333,-17.166 z"
     id="path264-2"
     inkscape:connector-curvature="0"
     style="fill:#3f5f35" /><path
     d="m 2630.833,497.334 c 0,0 -10.499,2.166 -2.166,-9.167 8.333,-11.333 36.167,-17.167 49,-3 12.833,14.167 -9,26.336 -25,26.168 -16,-0.168 -26.168,-4.668 -21.834,-14.001 z"
     id="path266-4"
     inkscape:connector-curvature="0"
     style="fill:#304027" /><path
     d="m 2641.667,487.667 c 0,0 -0.333,9.167 -1.833,9.167 0,0 -2.166,-0.335 -3.333,-4.584 0,0 -0.668,8.917 5.166,11.417 5.834,2.5 8.833,4.84 8.5,7.67 h 4.334 v -4.67 c 0,0 4,-2.497 3.5,-7.165 0,0 4.333,-2.167 6.833,-6.501 0,0 -4,4 -6.5,3.833 0,0 -1.167,-5.834 -1.167,-9.167 0,0 -0.334,10.5 -2.5,13.667 -2.166,3.167 -7.812,2.689 -12.5,0.167 0,0 -2.166,-2.666 -0.833,-4.5 1.333,-1.834 0.833,-8.168 0.333,-9.334 z"
     id="path268-6"
     inkscape:connector-curvature="0"
     style="fill:#222c17" /><path
     d="m 2557.334,511.337 v -13.836 c 0,0 -13.499,-5.516 -12.333,-20.675 0,0 2.666,13.837 13.333,17.256 0,0 3.25,-14.831 15,-18.331 0,0 -7.25,6.416 -8.5,12.416 0,0 8.999,2.918 14.333,-1.666 0,0 -0.5,6.584 -15,5 0,0 -3.147,-1.327 -2.97,19.836 h -3.863 z"
     id="path270-0"
     inkscape:connector-curvature="0"
     style="fill:#222c17" /></g><path
   style="fill:#4c694e"
   inkscape:connector-curvature="0"
   d="m 3400.0795,447.96744 c 0,0 -12.6945,-5.02735 -18.8747,0 0,0 -11.1912,-7.14412 -21.5472,0 0,0 -20.879,-7.14412 -24.5537,1.32299 0,0 -7.0154,-3.17517 -9.0198,1.32299 0,0 -7.3494,-6.87953 -9.3538,-2.91057 0,0 -7.4329,-10.71619 -7.3494,1.71988 0,0 -8.1846,-1.32299 -6.0132,3.57206 0,0 -6.3472,-0.79379 -6.2637,4.49814 0,0 -2.9231,-6.35032 -6.0132,-4.23354 0,0 -3.8698,-7.29019 -9.883,-2.80686 0,0 -14.2532,-8.83542 -17.2597,0.69008 0,0 -13.1402,-0.79485 -9.1314,6.35032 0,0 -4.3428,3.61757 -2.0044,7.14518 h 6.8764 l 17.0373,-0.53025 11.1077,-0.13235 29.9823,-0.92609 30.734,0.39689 0.2505,-1.32298 29.1746,-0.48474 24.1642,1.05839 v -1.05839 l 14.4764,0.22014 v -12.43605 l -16.5362,-1.45529 z"
   id="path261-4-5-4" /><g
   id="Layer_14-7-2"
   transform="matrix(0.38428119,0,0,1.0583881,2236.8695,-91.464508)"><path
     d="m 3004.667,517.334 c 0,0 17.332,-34 37.666,-21 0,0 36.333,-21.666 62,-6.333 0,0 20.334,-26 37.667,-9 0,0 6.667,-21.333 25.667,-16 l 139,6 c 0,0 11.334,3.333 31,11.333 0,0 16,-63.666 83,-39.333 0,0 23.999,-63 104.666,-19.667 0,0 1.167,-11.834 32.167,-7.834 31.2316,31.35308 53.8644,33.8045 41.3462,70.46154 l 14.8977,35.98784 z"
     id="path242-4-3"
     inkscape:connector-curvature="0"
     style="fill:#4f6a4b"
     sodipodi:nodetypes="ccccccccccccc" /></g><g
   id="Layer_15-9-4"
   transform="matrix(0.66812963,0,0,1.0583881,1360.1642,-88.560063)"><path
     d="m 3252.333,488 c 0,0 -9.333,10.667 -22.333,0 0,0 -25,20 -30,0 0,0 -44.667,12.666 -36,-6.667 0,0 -20,-15.667 1,-17 0,0 -10,-19.333 21,-18.333 31,1 15.067,-18.666 18.2,-34.333 3.133,-15.667 26.466,-23.668 51.133,-20.334 24.667,3.334 20.667,20.334 20.667,20.334 0,0 11.5,1.083 10.75,7.583 0,0 2.5,-0.75 4.75,0.5 0,0 14.5,-18.75 28.25,7.75 13.75,26.5 -8.75,43 -8.75,43 0,0 3.5,8 -5.5,12.5 -9,4.5 -13.75,-1.75 -13.75,-1.75 0,0 -14.75,20.75 -26.75,7.5 L 3252.333,488 z"
     id="path245-8-4"
     inkscape:connector-curvature="0"
     style="fill:#566235" /><path
     d="m 3056.167,502 c 0,0 -8.167,9.333 -15.667,5.833 0,0 -10.667,8.5 -18.5,1.5 -7.833,-7 0.667,-10.666 0.667,-10.666 0,0 -18.667,-5.666 -6.167,-13 12.5,-7.334 21.833,0 21.833,0 0,0 11.501,-4.167 16.334,2.333 4.833,6.5 1.5,14 1.5,14 z"
     id="path249-6-5"
     inkscape:connector-curvature="0"
     style="fill:#304122" /><path
     d="m 3053.5,490.5 c 0,0 -14.333,-17.667 1.167,-25 15.5,-7.333 27.667,0 26,3 0,0 23.999,-5.5 28.666,4 4.667,9.5 -6.332,26.166 -14.666,26.833 0,0 -7.833,7.666 -14,0 0,0 -7.833,9.48 -18,3.407 0,0 -18,5.927 -19,-3.073 -1,-9 9.833,-9.167 9.833,-9.167 z"
     id="path251-4-6"
     inkscape:connector-curvature="0"
     style="fill:#465f37" /></g><g
   id="Layer_16-5-7"
   transform="matrix(0.66812963,0,0,1.0583881,1356.4972,-82.751172)"><path
     d="m 3041.667,517.334 c 0,0 2.5,-8.501 -3,-11.167 -5.5,-2.666 -8.986,-4.995 -9.334,-8.666 0,0 3.067,2.833 6.117,3.333 3.05,0.5 4.383,2.5 4.383,2.5 0,0 -1.332,-6.667 -1.166,-11.667 0,0 1.969,4.333 3.567,9.5 0,0 2.266,13.334 3.766,16.167 h -4.333 z"
     id="path254-2-5"
     inkscape:connector-curvature="0"
     style="fill:#252c19" /><path
     d="m 3061.5,485.167 c 0,0 3.499,7.834 8.333,9.167 4.834,1.333 7,2.5 8.167,6 1.167,3.5 4.667,8 4.167,17 h 7.333 c 0,0 -1.834,-6.833 -4.167,-10.333 -2.333,-3.5 -5.5,-6.333 2.667,-12.5 8.167,-6.167 11.834,-15.501 9.167,-17.834 0,0 -5.834,11.166 -10.834,15 -5,3.834 -7.667,1.334 -10,-4.333 -2.333,-5.667 -3.832,-11.667 -8.166,-11.667 0,0 5.96,8.358 6.833,14.834 0,0 -4.667,3.999 -13.5,-5.334 z"
     id="path256-4-4"
     inkscape:connector-curvature="0"
     style="fill:#252c19" /><path
     d="m 3296.5,517.334 c 0,0 -3.166,-14.334 -9.166,-19.834 0,0 -16.5,3.334 -19,-8.833 -2.5,-12.167 7.999,-13 9.833,-12.667 1.834,0.333 6.205,-3.67 3.353,-6.085 0,0 -1.185,-17.914 -0.519,-20.248 0.666,-2.334 2.833,-2.834 2.833,-4.834 0,0 25.333,-2.167 26.5,-12.5 0,0 -6.001,5.5 -15.667,7.167 0,0 5.333,-7.834 4,-12.667 0,0 -3.833,10.5 -10.333,13.167 0,0 -5.666,1.167 -9.333,1 -3.667,-0.167 -2.666,1.335 -2.833,7.501 -0.167,6.166 1.499,23.498 -11.001,25.332 0,0 -7.834,-7 -8,-16.5 0,0 -7.834,1.667 -12,0.667 0,0 -4.5,-3.333 -4.833,-11.333 -0.333,-8 0.667,-10.667 0.667,-10.667 0,0 12.832,-14.667 8.999,-24 0,0 -3.167,15.5 -13,21.167 0,0 -11.166,-9.334 -18.833,-20.167 0,0 0.166,6.667 16.666,22.667 0,0 -2.169,19.558 1.334,26 0,0 -12,8.666 -21,11 -9,2.334 -13.334,-6.332 -12.167,-17.666 0,0 -5.333,12.166 1.167,18.666 0,0 -13.352,3.426 -23.843,-8.12 0,0 9.648,18.101 37.343,10.454 0,0 16.334,-7.666 19.5,-10 0,0 12.833,-3.334 14.333,6.166 1.5,9.5 -1.667,12.666 -4,14.5 l -0.167,1.5 c 0,0 7.5,7.666 15.5,12.5 8,4.834 9.334,16.667 9.334,16.667 h 24.333 z"
     id="path258-6-0"
     inkscape:connector-curvature="0"
     style="fill:#252c19" /></g><g
   id="Layer_18-2-8"
   transform="matrix(0.66812963,0,0,1.0583881,1424.3363,-76.942299)"><path
     d="m 2583.75,498.25 c 0,0 19,-4.75 28.25,0 0,0 16.75,-6.75 32.25,0 0,0 31.25,-6.75 36.75,1.25 0,0 10.5,-3 13.5,1.25 0,0 11,-6.5 14,-2.75 0,0 11.125,-10.125 11,1.625 0,0 12.25,-1.25 9,3.375 0,0 9.5,-0.75 9.375,4.25 0,0 4.375,-6 9,-4 0,0 5.792,-6.888 14.792,-2.652 0,0 21.333,-8.348 25.833,0.652 0,0 19.667,-0.751 13.667,6 0,0 6.5,3.418 3,6.751 h -10.292 l -25.5,-0.501 -16.625,-0.125 -44.875,-0.875 -46,0.375 -0.375,-1.25 -43.666,-0.458 -36.167,1 v -1 L 2559,511.375 v -11.75 l 24.75,-1.375 z"
     id="path261-2-6"
     inkscape:connector-curvature="0"
     style="fill:#4c694e" /></g><g
   id="Layer_19-0-9"
   transform="matrix(0.66812963,0,0,1.0583881,1508.6769,-74.037836)"><path
     d="m 2539.167,468.667 c 0,0 -6,-3.333 2.5,-13 8.5,-9.667 22.166,-15.833 29.5,-8 7.334,7.833 -5.833,17.166 3.667,14.166 9.5,-3 24.167,-1.833 24.5,9.667 0.333,11.5 -4.333,12.833 -4.333,12.833 0,0 -5.167,23.501 -14.167,15.834 0,0 -8.166,14.574 -21.333,1.537 0,0 -9.5,6.63 -12.5,1.463 0,0 -9,10.833 -13.667,-2.167 0,0 -13.667,-2.667 -9.5,-15.167 0,0 0.166,-18.332 15.333,-17.166 z"
     id="path264-8-6"
     inkscape:connector-curvature="0"
     style="fill:#3f5f35" /><path
     d="m 2630.833,497.334 c 0,0 -10.499,2.166 -2.166,-9.167 8.333,-11.333 36.167,-17.167 49,-3 12.833,14.167 -9,26.336 -25,26.168 -16,-0.168 -26.168,-4.668 -21.834,-14.001 z"
     id="path266-6-2"
     inkscape:connector-curvature="0"
     style="fill:#304027" /><path
     d="m 2641.667,487.667 c 0,0 -0.333,9.167 -1.833,9.167 0,0 -2.166,-0.335 -3.333,-4.584 0,0 -0.668,8.917 5.166,11.417 5.834,2.5 8.833,4.84 8.5,7.67 h 4.334 v -4.67 c 0,0 4,-2.497 3.5,-7.165 0,0 4.333,-2.167 6.833,-6.501 0,0 -4,4 -6.5,3.833 0,0 -1.167,-5.834 -1.167,-9.167 0,0 -0.334,10.5 -2.5,13.667 -2.166,3.167 -7.812,2.689 -12.5,0.167 0,0 -2.166,-2.666 -0.833,-4.5 1.333,-1.834 0.833,-8.168 0.333,-9.334 z"
     id="path268-7-9"
     inkscape:connector-curvature="0"
     style="fill:#222c17" /><path
     d="m 2557.334,511.337 v -13.836 c 0,0 -13.499,-5.516 -12.333,-20.675 0,0 2.666,13.837 13.333,17.256 0,0 3.25,-14.831 15,-18.331 0,0 -7.25,6.416 -8.5,12.416 0,0 8.999,2.918 14.333,-1.666 0,0 -0.5,6.584 -15,5 0,0 -3.147,-1.327 -2.97,19.836 h -3.863 z"
     id="path270-4-9"
     inkscape:connector-curvature="0"
     style="fill:#222c17" /></g><path
   style="fill:#4c694e"
   inkscape:connector-curvature="0"
   d="m 2879.3679,462.48965 c 0,0 -12.6945,-5.02733 -18.8747,0 0,0 -11.1912,-7.14411 -21.5472,0 0,0 -20.879,-7.14411 -24.5537,1.32299 0,0 -7.0154,-3.17517 -9.0198,1.32298 0,0 -7.3494,-6.87951 -9.3538,-2.91057 0,0 -7.4329,-10.71617 -7.3494,1.71989 0,0 -8.1846,-1.32299 -6.0132,3.57206 0,0 -6.3472,-0.79379 -6.2637,4.49815 0,0 -2.9231,-6.35033 -6.0132,-4.23355 0,0 -3.8698,-7.29017 -9.8829,-2.80686 0,0 -14.2533,-8.83541 -17.2598,0.69008 0,0 -13.1401,-0.79485 -9.1314,6.35033 0,0 -4.3428,3.61756 -2.0044,7.14519 h 6.8764 l 17.0373,-0.53027 11.1077,-0.13235 29.9823,-0.92609 30.734,0.39689 0.2505,-1.32297 29.1746,-0.48475 24.1642,1.05839 v -1.05834 l 14.4764,0.22016 v -12.43607 l -16.5362,-1.45529 z"
   id="path261-4-7-0" /><g
   id="Layer_14-75-9"
   transform="matrix(0.66812963,0,0,1.0583881,863.28809,-76.942281)"><path
     d="m 3004.667,517.334 c 0,0 17.332,-34 37.666,-21 0,0 36.333,-21.666 62,-6.333 0,0 20.334,-26 37.667,-9 0,0 6.667,-21.333 25.667,-16 l 139,6 c 0,0 11.334,3.333 31,11.333 0,0 16,-63.666 83,-39.333 0,0 23.999,-63 104.666,-19.667 0,0 1.167,-11.834 32.167,-7.834 31.2316,31.35308 53.8644,33.8045 41.3462,70.46154 l 14.8977,35.98784 z"
     id="path242-1-1"
     inkscape:connector-curvature="0"
     style="fill:#4f6a4b"
     sodipodi:nodetypes="ccccccccccccc" /></g><g
   id="Layer_15-4-7"
   transform="matrix(0.66812963,0,0,1.0583881,797.28239,-71.133408)"><path
     d="m 3332.667,517.334 c 0,0 50,-36.334 98.667,-5.334 0,0 40.667,-58 106,-25 0,0 4.742,-21.88 38.204,-24.273 8.0998,18.20233 64.3838,39.48159 46.1796,57.68392 z"
     id="path247-4-7"
     inkscape:connector-curvature="0"
     style="fill:#474929"
     sodipodi:nodetypes="cccccc" /><path
     d="m 3056.167,502 c 0,0 -8.167,9.333 -15.667,5.833 0,0 -10.667,8.5 -18.5,1.5 -7.833,-7 0.667,-10.666 0.667,-10.666 0,0 -18.667,-5.666 -6.167,-13 12.5,-7.334 21.833,0 21.833,0 0,0 11.501,-4.167 16.334,2.333 4.833,6.5 1.5,14 1.5,14 z"
     id="path249-4-7"
     inkscape:connector-curvature="0"
     style="fill:#304122" /><path
     d="m 3053.5,490.5 c 0,0 -14.333,-17.667 1.167,-25 15.5,-7.333 27.667,0 26,3 0,0 23.999,-5.5 28.666,4 4.667,9.5 -6.332,26.166 -14.666,26.833 0,0 -7.833,7.666 -14,0 0,0 -7.833,9.48 -18,3.407 0,0 -18,5.927 -19,-3.073 -1,-9 9.833,-9.167 9.833,-9.167 z"
     id="path251-1-8"
     inkscape:connector-curvature="0"
     style="fill:#465f37" /></g><g
   id="Layer_16-4-5"
   transform="matrix(0.66812963,0,0,1.0583881,793.61539,-62.420072)"><path
     d="m 3041.667,517.334 c 0,0 2.5,-8.501 -3,-11.167 -5.5,-2.666 -8.986,-4.995 -9.334,-8.666 0,0 3.067,2.833 6.117,3.333 3.05,0.5 4.383,2.5 4.383,2.5 0,0 -1.332,-6.667 -1.166,-11.667 0,0 1.969,4.333 3.567,9.5 0,0 2.266,13.334 3.766,16.167 h -4.333 z"
     id="path254-8-6"
     inkscape:connector-curvature="0"
     style="fill:#252c19" /><path
     d="m 3061.5,485.167 c 0,0 3.499,7.834 8.333,9.167 4.834,1.333 7,2.5 8.167,6 1.167,3.5 4.667,8 4.167,17 h 7.333 c 0,0 -1.834,-6.833 -4.167,-10.333 -2.333,-3.5 -5.5,-6.333 2.667,-12.5 8.167,-6.167 11.834,-15.501 9.167,-17.834 0,0 -5.834,11.166 -10.834,15 -5,3.834 -7.667,1.334 -10,-4.333 -2.333,-5.667 -3.832,-11.667 -8.166,-11.667 0,0 5.96,8.358 6.833,14.834 0,0 -4.667,3.999 -13.5,-5.334 z"
     id="path256-6-5"
     inkscape:connector-curvature="0"
     style="fill:#252c19" /><path
     d="m 3296.5,517.334 c 0,0 -3.166,-14.334 -9.166,-19.834 0,0 -16.5,3.334 -19,-8.833 -2.5,-12.167 7.999,-13 9.833,-12.667 1.834,0.333 6.205,-3.67 3.353,-6.085 0,0 -1.185,-17.914 -0.519,-20.248 0.666,-2.334 2.833,-2.834 2.833,-4.834 0,0 25.333,-2.167 26.5,-12.5 0,0 -6.001,5.5 -15.667,7.167 0,0 5.333,-7.834 4,-12.667 0,0 -3.833,10.5 -10.333,13.167 0,0 -5.666,1.167 -9.333,1 -3.667,-0.167 -2.666,1.335 -2.833,7.501 -0.167,6.166 1.499,23.498 -11.001,25.332 0,0 -7.834,-7 -8,-16.5 0,0 -7.834,1.667 -12,0.667 0,0 -4.5,-3.333 -4.833,-11.333 -0.333,-8 0.667,-10.667 0.667,-10.667 0,0 12.832,-14.667 8.999,-24 0,0 -3.167,15.5 -13,21.167 0,0 -11.166,-9.334 -18.833,-20.167 0,0 0.166,6.667 16.666,22.667 0,0 -2.169,19.558 1.334,26 0,0 -12,8.666 -21,11 -9,2.334 -13.334,-6.332 -12.167,-17.666 0,0 -5.333,12.166 1.167,18.666 0,0 -13.352,3.426 -23.843,-8.12 0,0 9.648,18.101 37.343,10.454 0,0 16.334,-7.666 19.5,-10 0,0 12.833,-3.334 14.333,6.166 1.5,9.5 -1.667,12.666 -4,14.5 l -0.167,1.5 c 0,0 7.5,7.666 15.5,12.5 8,4.834 9.334,16.667 9.334,16.667 h 24.333 z"
     id="path258-1-8"
     inkscape:connector-curvature="0"
     style="fill:#252c19" /></g><g
   id="Layer_18-4-2"
   transform="matrix(0.66812963,0,0,1.0583881,903.62489,-62.420072)"><path
     d="m 2583.75,498.25 c 0,0 19,-4.75 28.25,0 0,0 16.75,-6.75 32.25,0 0,0 31.25,-6.75 36.75,1.25 0,0 10.5,-3 13.5,1.25 0,0 11,-6.5 14,-2.75 0,0 11.125,-10.125 11,1.625 0,0 12.25,-1.25 9,3.375 0,0 9.5,-0.75 9.375,4.25 0,0 4.375,-6 9,-4 0,0 5.792,-6.888 14.792,-2.652 0,0 21.333,-8.348 25.833,0.652 0,0 19.667,-0.751 13.667,6 0,0 6.5,3.418 3,6.751 h -10.292 l -25.5,-0.501 -16.625,-0.125 -44.875,-0.875 -46,0.375 -0.375,-1.25 -43.666,-0.458 -36.167,1 v -1 L 2559,511.375 v -11.75 l 24.75,-1.375 z"
     id="path261-7-7"
     inkscape:connector-curvature="0"
     style="fill:#4c694e" /></g><g
   id="Layer_19-1-3"
   transform="matrix(0.66812963,0,0,1.0583881,987.96549,-59.515627)"><path
     d="m 2539.167,468.667 c 0,0 -6,-3.333 2.5,-13 8.5,-9.667 22.166,-15.833 29.5,-8 7.334,7.833 -5.833,17.166 3.667,14.166 9.5,-3 24.167,-1.833 24.5,9.667 0.333,11.5 -4.333,12.833 -4.333,12.833 0,0 -5.167,23.501 -14.167,15.834 0,0 -8.166,14.574 -21.333,1.537 0,0 -9.5,6.63 -12.5,1.463 0,0 -9,10.833 -13.667,-2.167 0,0 -13.667,-2.667 -9.5,-15.167 0,0 0.166,-18.332 15.333,-17.166 z"
     id="path264-9-6"
     inkscape:connector-curvature="0"
     style="fill:#3f5f35" /><path
     d="m 2630.833,497.334 c 0,0 -10.499,2.166 -2.166,-9.167 8.333,-11.333 36.167,-17.167 49,-3 12.833,14.167 -9,26.336 -25,26.168 -16,-0.168 -26.168,-4.668 -21.834,-14.001 z"
     id="path266-5-2"
     inkscape:connector-curvature="0"
     style="fill:#304027" /><path
     d="m 2641.667,487.667 c 0,0 -0.333,9.167 -1.833,9.167 0,0 -2.166,-0.335 -3.333,-4.584 0,0 -0.668,8.917 5.166,11.417 5.834,2.5 8.833,4.84 8.5,7.67 h 4.334 v -4.67 c 0,0 4,-2.497 3.5,-7.165 0,0 4.333,-2.167 6.833,-6.501 0,0 -4,4 -6.5,3.833 0,0 -1.167,-5.834 -1.167,-9.167 0,0 -0.334,10.5 -2.5,13.667 -2.166,3.167 -7.812,2.689 -12.5,0.167 0,0 -2.166,-2.666 -0.833,-4.5 1.333,-1.834 0.833,-8.168 0.333,-9.334 z"
     id="path268-8-5"
     inkscape:connector-curvature="0"
     style="fill:#222c17" /><path
     d="m 2557.334,511.337 v -13.836 c 0,0 -13.499,-5.516 -12.333,-20.675 0,0 2.666,13.837 13.333,17.256 0,0 3.25,-14.831 15,-18.331 0,0 -7.25,6.416 -8.5,12.416 0,0 8.999,2.918 14.333,-1.666 0,0 -0.5,6.584 -15,5 0,0 -3.147,-1.327 -2.97,19.836 h -3.863 z"
     id="path270-5-4"
     inkscape:connector-curvature="0"
     style="fill:#222c17" /></g><path
   style="fill:#4c694e"
   inkscape:connector-curvature="0"
   d="m 2597.369,453.77633 c 0,0 12.6945,-5.02734 18.8747,0 0,0 11.1912,-7.14412 21.5472,0 0,0 20.879,-7.14412 24.5537,1.32299 0,0 7.0154,-3.17517 9.0198,1.32299 0,0 7.3494,-6.87953 9.3538,-2.91057 0,0 7.4329,-10.71619 7.3494,1.71988 0,0 8.1846,-1.32299 6.0132,3.57204 0,0 6.3472,-0.79379 6.2637,4.49816 0,0 2.9231,-6.35032 6.0132,-4.23356 0,0 3.8698,-7.29017 9.883,-2.80683 0,0 14.2532,-8.83543 17.2597,0.69007 0,0 13.1402,-0.79486 9.1314,6.35032 0,0 4.3428,3.61758 2.0044,7.14518 h -6.8764 l -17.0373,-0.53025 -11.1077,-0.13235 -29.9823,-0.92609 -30.734,0.39689 -0.2505,-1.32298 -29.1746,-0.48474 -24.1642,1.05839 v -1.05839 l -14.4764,0.22014 v -12.43605 l 16.5362,-1.45529 z"
   id="path261-4-8-0" /><g
   id="Layer_14-2-3"
   transform="matrix(-0.66812963,0,0,1.0583881,4613.449,-85.655617)"><path
     d="m 3004.667,517.334 c 0,0 17.332,-34 37.666,-21 0,0 36.333,-21.666 62,-6.333 0,0 20.334,-26 37.667,-9 0,0 6.667,-21.333 25.667,-16 l 139,6 c 0,0 11.334,3.333 31,11.333 0,0 16,-63.666 83,-39.333 0,0 23.999,-63 104.666,-19.667 0,0 1.167,-11.834 32.167,-7.834 31.2316,31.35308 53.8644,33.8045 41.3462,70.46154 l 14.8977,35.98784 z"
     id="path242-12-9"
     inkscape:connector-curvature="0"
     style="fill:#4f6a4b"
     sodipodi:nodetypes="ccccccccccccc" /></g><g
   id="Layer_15-43-4"
   transform="matrix(-0.66812963,0,0,1.0583881,4679.4546,-79.846726)"><path
     d="m 3332.667,517.334 c 0,0 50,-36.334 98.667,-5.334 0,0 40.667,-58 106,-25 0,0 4.742,-21.88 38.204,-24.273 8.0998,18.20233 64.3838,39.48159 46.1796,57.68392 z"
     id="path247-2-7"
     inkscape:connector-curvature="0"
     style="fill:#474929"
     sodipodi:nodetypes="cccccc" /><path
     d="m 3056.167,502 c 0,0 -8.167,9.333 -15.667,5.833 0,0 -10.667,8.5 -18.5,1.5 -7.833,-7 0.667,-10.666 0.667,-10.666 0,0 -18.667,-5.666 -6.167,-13 12.5,-7.334 21.833,0 21.833,0 0,0 11.501,-4.167 16.334,2.333 4.833,6.5 1.5,14 1.5,14 z"
     id="path249-0-3"
     inkscape:connector-curvature="0"
     style="fill:#304122" /><path
     d="m 3053.5,490.5 c 0,0 -14.333,-17.667 1.167,-25 15.5,-7.333 27.667,0 26,3 0,0 23.999,-5.5 28.666,4 4.667,9.5 -6.332,26.166 -14.666,26.833 0,0 -7.833,7.666 -14,0 0,0 -7.833,9.48 -18,3.407 0,0 -18,5.927 -19,-3.073 -1,-9 9.833,-9.167 9.833,-9.167 z"
     id="path251-7-5"
     inkscape:connector-curvature="0"
     style="fill:#465f37" /></g><g
   id="Layer_16-9-6"
   transform="matrix(-0.66812963,0,0,1.0583881,4683.1217,-71.133408)"><path
     d="m 3041.667,517.334 c 0,0 2.5,-8.501 -3,-11.167 -5.5,-2.666 -8.986,-4.995 -9.334,-8.666 0,0 3.067,2.833 6.117,3.333 3.05,0.5 4.383,2.5 4.383,2.5 0,0 -1.332,-6.667 -1.166,-11.667 0,0 1.969,4.333 3.567,9.5 0,0 2.266,13.334 3.766,16.167 h -4.333 z"
     id="path254-7-5"
     inkscape:connector-curvature="0"
     style="fill:#252c19" /><path
     d="m 3061.5,485.167 c 0,0 3.499,7.834 8.333,9.167 4.834,1.333 7,2.5 8.167,6 1.167,3.5 4.667,8 4.167,17 h 7.333 c 0,0 -1.834,-6.833 -4.167,-10.333 -2.333,-3.5 -5.5,-6.333 2.667,-12.5 8.167,-6.167 11.834,-15.501 9.167,-17.834 0,0 -5.834,11.166 -10.834,15 -5,3.834 -7.667,1.334 -10,-4.333 -2.333,-5.667 -3.832,-11.667 -8.166,-11.667 0,0 5.96,8.358 6.833,14.834 0,0 -4.667,3.999 -13.5,-5.334 z"
     id="path256-42-6"
     inkscape:connector-curvature="0"
     style="fill:#252c19" /><path
     d="m 3296.5,517.334 c 0,0 -3.166,-14.334 -9.166,-19.834 0,0 -16.5,3.334 -19,-8.833 -2.5,-12.167 7.999,-13 9.833,-12.667 1.834,0.333 6.205,-3.67 3.353,-6.085 0,0 -1.185,-17.914 -0.519,-20.248 0.666,-2.334 2.833,-2.834 2.833,-4.834 0,0 25.333,-2.167 26.5,-12.5 0,0 -6.001,5.5 -15.667,7.167 0,0 5.333,-7.834 4,-12.667 0,0 -3.833,10.5 -10.333,13.167 0,0 -5.666,1.167 -9.333,1 -3.667,-0.167 -2.666,1.335 -2.833,7.501 -0.167,6.166 1.499,23.498 -11.001,25.332 0,0 -7.834,-7 -8,-16.5 0,0 -7.834,1.667 -12,0.667 0,0 -4.5,-3.333 -4.833,-11.333 -0.333,-8 0.667,-10.667 0.667,-10.667 0,0 12.832,-14.667 8.999,-24 0,0 -3.167,15.5 -13,21.167 0,0 -11.166,-9.334 -18.833,-20.167 0,0 0.166,6.667 16.666,22.667 0,0 -2.169,19.558 1.334,26 0,0 -12,8.666 -21,11 -9,2.334 -13.334,-6.332 -12.167,-17.666 0,0 -5.333,12.166 1.167,18.666 0,0 -13.352,3.426 -23.843,-8.12 0,0 9.648,18.101 37.343,10.454 0,0 16.334,-7.666 19.5,-10 0,0 12.833,-3.334 14.333,6.166 1.5,9.5 -1.667,12.666 -4,14.5 l -0.167,1.5 c 0,0 7.5,7.666 15.5,12.5 8,4.834 9.334,16.667 9.334,16.667 h 24.333 z"
     id="path258-4-7"
     inkscape:connector-curvature="0"
     style="fill:#252c19" /></g><g
   id="Layer_18-21-7"
   transform="matrix(-0.66812963,0,0,1.0583881,4573.1122,-71.133408)"><path
     d="m 2583.75,498.25 c 0,0 19,-4.75 28.25,0 0,0 16.75,-6.75 32.25,0 0,0 31.25,-6.75 36.75,1.25 0,0 10.5,-3 13.5,1.25 0,0 11,-6.5 14,-2.75 0,0 11.125,-10.125 11,1.625 0,0 12.25,-1.25 9,3.375 0,0 9.5,-0.75 9.375,4.25 0,0 4.375,-6 9,-4 0,0 5.792,-6.888 14.792,-2.652 0,0 21.333,-8.348 25.833,0.652 0,0 19.667,-0.751 13.667,6 0,0 6.5,3.418 3,6.751 h -10.292 l -25.5,-0.501 -16.625,-0.125 -44.875,-0.875 -46,0.375 -0.375,-1.25 -43.666,-0.458 -36.167,1 v -1 L 2559,511.375 v -11.75 l 24.75,-1.375 z"
     id="path261-8-5"
     inkscape:connector-curvature="0"
     style="fill:#4c694e" /></g><g
   id="Layer_19-6-8"
   transform="matrix(-0.66812963,0,0,1.0583881,4488.7716,-68.228963)"><path
     d="m 2539.167,468.667 c 0,0 -6,-3.333 2.5,-13 8.5,-9.667 22.166,-15.833 29.5,-8 7.334,7.833 -5.833,17.166 3.667,14.166 9.5,-3 24.167,-1.833 24.5,9.667 0.333,11.5 -4.333,12.833 -4.333,12.833 0,0 -5.167,23.501 -14.167,15.834 0,0 -8.166,14.574 -21.333,1.537 0,0 -9.5,6.63 -12.5,1.463 0,0 -9,10.833 -13.667,-2.167 0,0 -13.667,-2.667 -9.5,-15.167 0,0 0.166,-18.332 15.333,-17.166 z"
     id="path264-2-4"
     inkscape:connector-curvature="0"
     style="fill:#3f5f35" /><path
     d="m 2630.833,497.334 c 0,0 -10.499,2.166 -2.166,-9.167 8.333,-11.333 36.167,-17.167 49,-3 12.833,14.167 -9,26.336 -25,26.168 -16,-0.168 -26.168,-4.668 -21.834,-14.001 z"
     id="path266-4-9"
     inkscape:connector-curvature="0"
     style="fill:#304027" /><path
     d="m 2641.667,487.667 c 0,0 -0.333,9.167 -1.833,9.167 0,0 -2.166,-0.335 -3.333,-4.584 0,0 -0.668,8.917 5.166,11.417 5.834,2.5 8.833,4.84 8.5,7.67 h 4.334 v -4.67 c 0,0 4,-2.497 3.5,-7.165 0,0 4.333,-2.167 6.833,-6.501 0,0 -4,4 -6.5,3.833 0,0 -1.167,-5.834 -1.167,-9.167 0,0 -0.334,10.5 -2.5,13.667 -2.166,3.167 -7.812,2.689 -12.5,0.167 0,0 -2.166,-2.666 -0.833,-4.5 1.333,-1.834 0.833,-8.168 0.333,-9.334 z"
     id="path268-6-7"
     inkscape:connector-curvature="0"
     style="fill:#222c17" /><path
     d="m 2557.334,511.337 v -13.836 c 0,0 -13.499,-5.516 -12.333,-20.675 0,0 2.666,13.837 13.333,17.256 0,0 3.25,-14.831 15,-18.331 0,0 -7.25,6.416 -8.5,12.416 0,0 8.999,2.918 14.333,-1.666 0,0 -0.5,6.584 -15,5 0,0 -3.147,-1.327 -2.97,19.836 h -3.863 z"
     id="path270-0-1"
     inkscape:connector-curvature="0"
     style="fill:#222c17" /></g></svg>