<?xml version="1.0" encoding="UTF-8" standalone="no"?>
<!-- Generator: Adobe Illustrator 15.1.0, SVG Export Plug-In . SVG Version: 6.00 Build 0)  -->

<svg
   xmlns:dc="http://purl.org/dc/elements/1.1/"
   xmlns:cc="http://creativecommons.org/ns#"
   xmlns:rdf="http://www.w3.org/1999/02/22-rdf-syntax-ns#"
   xmlns:svg="http://www.w3.org/2000/svg"
   xmlns="http://www.w3.org/2000/svg"
   xmlns:sodipodi="http://sodipodi.sourceforge.net/DTD/sodipodi-0.dtd"
   xmlns:inkscape="http://www.inkscape.org/namespaces/inkscape"
   version="1.1"
   x="0px"
   y="0px"
   width="3635px"
   height="768px"
   viewBox="0 0 3635 768"
   enable-background="new 0 0 3635 768"
   xml:space="preserve"
   id="svg16680"
   inkscape:version="0.48.3.1 r9886"
   sodipodi:docname="clouds.svg"
   inkscape:export-filename="/home/dos/git/SuperDerpy/data/assets/svg/rockfarm/background.png"
   inkscape:export-xdpi="90"
   inkscape:export-ydpi="90"><metadata
   id="metadata18808"><rdf:RDF><cc:Work
       rdf:about=""><dc:format>image/svg+xml</dc:format><dc:type
         rdf:resource="http://purl.org/dc/dcmitype/StillImage" /><dc:title /></cc:Work></rdf:RDF></metadata><defs
   id="defs18806" /><sodipodi:namedview
   pagecolor="#ffffff"
   bordercolor="#666666"
   borderopacity="1"
   objecttolerance="10"
   gridtolerance="10"
   guidetolerance="10"
   inkscape:pageopacity="0"
   inkscape:pageshadow="2"
   inkscape:window-width="1280"
   inkscape:window-height="747"
   id="namedview18804"
   showgrid="false"
   inkscape:zoom="0.4384062"
   inkscape:cx="1178.8229"
   inkscape:cy="384"
   inkscape:window-x="0"
   inkscape:window-y="-3"
   inkscape:window-maximized="1"
   inkscape:current-layer="Layer_3" />

<g
   id="Layer_2">
	<linearGradient
   id="SVGID_1_"
   gradientUnits="userSpaceOnUse"
   x1="1817.5005"
   y1="509.832"
   x2="1817.5005"
   y2="4.882813e-004">
		<stop
   offset="0"
   style="stop-color:#72948C"
   id="stop16687" />
		<stop
   offset="1"
   style="stop-color:#809D99"
   id="stop16689" />
	</linearGradient>
	<rect
   width="3639.562"
   height="774.42682"
   id="rect16691"
   x="0"
   y="0"
   style="fill:url(#SVGID_1_)" />
</g>
<g
   id="Layer_4">
	<path
   fill="#6B8D87"
   d="M2282,306c0,0-21,3.5-27-10c0,0-18.667,1.667-16.333-8c0,0-12.666-6,3.667-7.667c0,0,12.649-7,15.658,3.333   c0,0,9.343-4,13.009,2c0,0,1.332-13,14.666-5.333c0,0,10.333-6.385,9,1.974c0,0,17.376,8.004-1.666,16.026   C2293.001,298.333,2294.333,311.667,2282,306z"
   id="path16694" />
	<path
   fill="#6B8D87"
   d="M2501.667,394c0,0,21.334,0.666,22-10c0,0,16,2.642,18-4.679c0,0,6.833,2.304,6.333-2.196   s-6.125-2.125-6.125-2.125s-3.5-8.75-13.625-1.25c0,0-11.749-0.417-17.249,4.75c0,0,1.185-16.416-15.334-7.788   s-24,18.954-6.5,16.121C2489.167,386.833,2491.833,396,2501.667,394z"
   id="path16696" />
	<path
   fill="#6B8D87"
   d="M2477.75,416.75c0,0,24-7,39.25,11.75s0,0,0,0s18.5,4.5,23.5,13c0,0,13.25-14.75,18.75-5.75   c0,0,19.25,1.25,3.75,13.25c0,0,14.75-3,18.5,4.75c0,0-5-6.25,15-6.25s9,4.5,9,4.5s10.25,4.25,6.25,9.5c0,0,6.25,7.25-5.25,9.75   l-14.75,4l-46.152,1.084L2510.5,455.25L2488.75,437L2477.75,416.75z"
   id="path16698" />
</g>
<g
   id="Layer_17">
	<linearGradient
   id="SVGID_2_"
   gradientUnits="userSpaceOnUse"
   x1="2681.4141"
   y1="247.6011"
   x2="2637.0518"
   y2="92.8914">
		<stop
   offset="0.5515"
   style="stop-color:#73938E"
   id="stop16702" />
		<stop
   offset="1"
   style="stop-color:#7F9C96"
   id="stop16704" />
	</linearGradient>
	<path
   fill="url(#SVGID_2_)"
   d="M2904.167,161.5c0,0-37.333,17.5-80.833,22.833s-89.666,7-117.833,6s-74.97-4.927-74.97-4.927   s24.802,23.927,13.136,46.26s-28,45.341-85.333,44.004s-152.584-40.949-134.834-88.31s112.406-69.582,178.828-73.971   S2731,127,2779.25,137.25S2904.167,161.5,2904.167,161.5z"
   id="path16706" />
	<linearGradient
   id="SVGID_3_"
   gradientUnits="userSpaceOnUse"
   x1="1935.667"
   y1="86.1104"
   x2="2398.2119"
   y2="86.1104">
		<stop
   offset="0.5515"
   style="stop-color:#73938E"
   id="stop16709" />
		<stop
   offset="1"
   style="stop-color:#7F9C96"
   id="stop16711" />
	</linearGradient>
	<path
   fill="url(#SVGID_3_)"
   d="M1935.667,31.667l131-31.667h173c0,0,44.334,12,83,31.667s104.666,46.092,61.333,81.046   c0,0-118,74.955-195,56.621s-54.143-91.672-31.666-101.167c0,0-49.392,12.281-106.001,2.794S1935.667,31.667,1935.667,31.667z"
   id="path16713" />
</g>
<g
   id="Layer_3"
   transform="translate(31.933855,4.5619792)">
	<path
   d="m 3582.5372,31.314062 c 0,0 -23.333,14.333 -51.333,-14.667 0,0 19,40 51.333,22.333 v -7.666 z"
   id="path16716"
   inkscape:connector-curvature="0"
   style="fill:#668681" />
	<path
   d="m 3534.3502,22.118062 c 0,0 -30.48,22.804 -56.813,0 0,0 19.015,38.239 61.78,6.717 0,0 0.18,-5.246 -4.967,-6.717 z"
   id="path16718"
   inkscape:connector-curvature="0"
   style="fill:#668681" />
	<path
   d="m 3481.2112,27.643062 c 0,0 -15.007,20.671 -27.674,23.671 0,0 23.771,-5.255 33.386,-17.794 l -5.712,-5.877 z"
   id="path16720"
   inkscape:connector-curvature="0"
   style="fill:#668681" />
	<path
   d="m 3582.5372,124.81406 c 0,0 -83.5,-28.999998 -129,0 0,0 63,-21 129,7.5 v -7.5 z"
   id="path16722"
   inkscape:connector-curvature="0"
   style="fill:#668681" />
	<path
   d="m 3582.5372,70.314062 c 0,0 -68,-11 -129,38.999998 0,0 91.5,-41.499998 129,-29.499998 v -9.5 z"
   id="path16724"
   inkscape:connector-curvature="0"
   style="fill:#668681" />
	<path
   d="m 3405.333,94.333 c 0,0 -40,-9.334 -45,19.333 -5,28.667 14.334,61.334 51.334,59.334 l 3,-10.333 c 0,0 -48.667,7.333 -49.667,-31.667 -1,-39 40,-32.361 43,-28.014 l -2.667,-8.653 z"
   id="path16726"
   inkscape:connector-curvature="0"
   style="fill:#668681" />
	<path
   d="m 3414.667,150.333 c 0,0 -31,2.666 -33.667,-11.667 -2.667,-14.333 10.333,-18.333 10.333,-18.333 0,0 1,13 8.667,9 7.667,-4 -1.11,-14.333 -12.889,-14 -11.779,0.333 -23.777,42.333 27.556,40 v -5 z"
   id="path16728"
   inkscape:connector-curvature="0"
   style="fill:#668681" />
	<path
   d="m 3312.334,41.329 c 0,0 4.333,47.671 87,40.005 v -3 c 0,0 -69.001,11.657 -83.667,-37.005 h -3.333 z"
   id="path16730"
   inkscape:connector-curvature="0"
   style="fill:#668681" />
	<path
   d="m 3243.5,185 c 0,0 -14.25,0 -18,9.5 -3.75,9.5 10.692,13.447 18,10.25 4,-1.75 6.25,-7.5 8.5,-0.75 2.25,6.75 -15.25,6.5 -23.25,4.5 -8,-2 -15.914,-22.75 9.793,-25.75 l 4.957,2.25 z"
   id="path16732"
   inkscape:connector-curvature="0"
   style="fill:#668681" />
	<path
   d="m 3271,246 c 0,0 -79.999,-13.5 -70.333,-63.25 l -10.334,2.25 c 0,0 -12.333,56.667 80.667,61 z"
   id="path16734"
   inkscape:connector-curvature="0"
   style="fill:#668681" />
	<path
   d="m 3244,155.427 c 0,0 1.667,-31.094 27,-27.427 25.333,3.667 41.667,33.667 6,32.667 l -0.333,-3 c 0,0 26,-0.333 6,-18.333 -20,-18 -35.666,14.333 -34,19.667 L 3244,155.427 z"
   id="path16736"
   inkscape:connector-curvature="0"
   style="fill:#668681" />
	<path
   d="m 3530.8469,398.13204 c 0,0 65,19 61,-36 -4,-55 -93.5,-63 -178,-12 -84.5,51 -244.833,41.667 -407.5,-3.667 -162.667,-45.334 -329.334,2 -334.667,62 -5.333,60 164.001,102.667 201.334,54.667 37.333,-48 4.833,-66.5 -40.667,-80 -45.5,-13.5 -73,32 -27,51 46,19 23,-33 11.5,-20 0,0 -1,-14.25 14.75,-7.5 15.75,6.75 27.25,41.25 -21.25,36.25 -48.5,-5 -53.5,-73.75 8,-69.75 61.5,4 111.5,55.5 57.5,100.5 -54,45 -157.5,9.5 -195,-31.5 -37.5,-41 -8.5,-86.5 119.5,-114 128,-27.5 276.667,52.382 454,44.691 177.333,-7.691 180.055,-75.492 287.334,-67.809 107.279,7.683 57.273,119.619 4.637,100.535 l -15.471,-7.417 z"
   id="path16738"
   inkscape:connector-curvature="0"
   style="fill:#668681" />
	<path
   d="m 2645.75,235.75 c 0,0 14.5,-15.5 33,-11.25 18.5,4.25 44,16 62.75,39.25 0,0 -6.5,-42.976 25.25,-39.988 31.75,2.988 60,39.988 60,39.988 0,0 -12,-54.25 57.25,-44 69.25,10.25 157.5,74.5 157.5,74.5 0,0 -18,-84.75 47,-101.75 65,-17 101.12,10.575 103.894,14.038 l 4.939,3.198 -1.939,3.438 c 0,0 -33.061,-31.841 -98.061,-15.507 -65,16.334 -60.667,113.667 37,166.667 0,0 -69,-37 -99.333,-66.667 C 3004.667,268 2924,230.5 2873,230 c -51,-0.5 -44.25,28.5 -27.5,62.75 0,0 -51,-56.5 -72.25,-60 -21.25,-3.5 -39.5,19.75 -11,63 0,0 -85.241,-107.684 -121.412,-45.55 0,0 -7.897,-12.022 4.912,-14.45 z"
   id="path16740"
   inkscape:connector-curvature="0"
   style="fill:#668681" />
	<path
   d="m 3304.333,24.333 c 0,0 -46.334,3.667 -72,-18 l -8,15 c 0,0 15.668,-2 31.334,5.667 15.666,7.667 47.332,3.667 48.666,2 1.334,-1.667 0,-4.667 0,-4.667 z"
   id="path16742"
   inkscape:connector-curvature="0"
   style="fill:#668681" />
	<path
   d="m 3217.667,2.667 c 0,0 -41.333,23 -88.333,20.667 -47,-2.333 -61.666,-5 -73.333,-23.333 h -18.334 c 0,0 7,23.833 54.833,35.833 0,0 -47.833,20.166 -85.5,51.833 -37.667,31.667 -105.113,127.519 -385.057,88.426 l 10.39,11.268 7.312,3.02 c 0,0 199.355,27.23 321.355,-54.575 122,-81.805 182.691,-121.617 259.996,-113.472 0,-0.001 10.338,-17.001 -3.329,-19.667 z"
   id="path16744"
   inkscape:connector-curvature="0"
   style="fill:#668681" />
	<path
   d="m 2513.333,46.333 c 0,0 29.887,-42 108.61,-19.333 78.723,22.667 71.058,80.333 71.058,80.333 0,0 -15.334,-62.333 -67.001,-71.333 -51.667,-9 -76.334,-8.333 -112.667,10.333 z"
   id="path16746"
   inkscape:connector-curvature="0"
   style="fill:#668681" />
	<path
   d="m 2602.25,0 c 0,0 149.75,40 254.25,0 h 10.5 c 0,0 33.5,64 127,28.5 l -3,10.725 c 0,0 -79,27.775 -133.5,-29.725 0,0 -112.167,44.833 -277.5,-9.5 h 22.25 z"
   id="path16748"
   inkscape:connector-curvature="0"
   style="fill:#668681" />
	<path
   d="m 2914.667,103 c 0,0 37.984,21.162 60.325,18.914 22.341,-2.248 -4.659,4.419 -4.659,4.419 h -7.776 c 0,0 -27.223,-3.333 -47.89,-23.333 z"
   id="path16750"
   inkscape:connector-curvature="0"
   style="fill:#668681" />
	<path
   d="m 2776.417,25.494 c 0,0 81.917,74.006 138.25,43.506 0,0 57.833,38.333 92.333,18.667 l -2,9.699 h -8.742 c 0,0 -25.924,14.635 -81.591,-16.865 0,0 -86.177,20.854 -144.172,-54.573 0,-0.001 1.464,-11.815 5.922,-0.434 z"
   id="path16752"
   inkscape:connector-curvature="0"
   style="fill:#668681" />
	<path
   d="M 3063.533,50.061 C 3038.735,62.442 3007,50.75 3007,50.75 V 57 c 0,0 24.863,9.272 40.807,2.011 0,0 21.509,6.11 15.726,-8.95 z"
   id="path16754"
   inkscape:connector-curvature="0"
   style="fill:#668681" />
	<path
   d="m 2685.069,71.81 c 0,0 136.437,-39.188 178.351,78.667 h -10.086 l -0.45,-1.766 c 0,0 -25.217,-100.711 -164.523,-69.861 -10e-4,0.001 -4.222,-2.23 -3.292,-7.04 z"
   id="path16756"
   inkscape:connector-curvature="0"
   style="fill:#668681" />
	<path
   d="m 2535.334,476.334 c 0,0 -86.001,-37.334 -70.667,-112 C 2480.001,289.668 2611,254 2830,309 c 219,55 325,121 325,121 v 14 c 0,0 -194,-86 -330,-117 -136,-31 -328,-46.333 -344,37.333 -16,83.666 70.001,106 70.001,106"
   id="path16758"
   inkscape:connector-curvature="0"
   style="fill:#668681" />
	<path
   d="m 2905.5,485 c 0,0 25,-63 -41.5,-77.5 -66.5,-14.5 -99.5,17.5 -101.5,38.75 -2,21.25 82,31.25 68,7.25 0,0 -19.37,16.728 -43.5,3.5 -24.13,-13.228 -9,-49 46,-48.5 55,0.5 65.5,47 60.5,64 l 12,12.5 z"
   id="path16760"
   inkscape:connector-curvature="0"
   style="fill:#668681" />
	<path
   d="m 2227.333,0 c 0,0 74.668,15 135.334,56.333 60.666,41.333 33.999,46 -33.334,80.667 C 2262,171.667 2205,184 2165.5,151.5 c -39.5,-32.5 -32,-68 8.5,-90 40.5,-22 85.5,3 68.5,34.5 -17,31.5 -56.5,21.25 -46.5,4.5 10,-16.75 14.75,-11 14.75,-11 0,0 5,-16 -14,-6.5 -19,9.5 -21.25,45.5 21.25,40.25 42.5,-5.25 62,-82.917 -11.333,-76.917 -73.333,6 -108.667,88 -43,118.667 65.667,30.667 119.833,4 209.333,-42.5 C 2462.5,76 2307.5,17.5 2247,0 h -19.667 z"
   id="path16762"
   inkscape:connector-curvature="0"
   style="fill:#668681" />
	<path
   d="m 1820.667,292.658 c 0,0 121.872,-96.83 290.667,-111.658 168.795,-14.828 244.504,68 190.585,160 -53.919,92 -141.252,100.667 -141.252,100.667 h -77.333 L 2092,421 c 0,0 133.333,2.667 188,-76.667 54.667,-79.334 10,-132.667 -88,-142 -98,-9.333 -206.334,14 -374.5,112 l 3.167,-21.675 z"
   id="path16764"
   inkscape:connector-curvature="0"
   style="fill:#668681" />
	<path
   d="m 1506.5,133.5 c 0,0 47,-16.5 51.5,-45 4.5,-28.5 -29.5,-43 -45.5,-20.5 -16,22.5 7.5,31.333 14.5,24 7,-7.333 5,-15.333 0.333,-16.667 -4.667,-1.334 -7,3.833 -9.667,2.5 -2.667,-1.333 3.333,-8.667 9.333,-6.5 6,2.167 15.406,14.811 5.453,23.905 C 1522.499,104.332 1492,96.75 1504,64.5 c 12,-32.25 65.75,-18.75 63.25,17.25 -2.5,36 -60.25,57.25 -60.25,57.25 l -0.5,-5.5 z"
   id="path16766"
   inkscape:connector-curvature="0"
   style="fill:#668681" />
	<path
   d="m 1563.35,95.798 c 0,0 42.984,-30.131 70.65,-21.798 27.666,8.333 3,29.333 -4.333,23.333 -7.333,-6 0.333,-15.333 3.333,-13.666 3,1.667 3.5,2.833 0.375,2.708 -3.125,-0.125 -3.5,11.139 3.625,6.257 7.125,-4.882 4.75,-11.632 -13.625,-11.007 -18.375,0.625 -44.516,2.877 -69.195,27.251 0,0 3.431,-9.361 9.17,-13.078 z"
   id="path16768"
   inkscape:connector-curvature="0"
   style="fill:#668681" />
	<path
   d="m 1646.809,120.333 c 0,0 53.691,-59.748 113.191,-47.791 59.5,11.957 79.5,71.957 66.5,120.957 0,0 81.501,-69.166 146.167,-81.833 64.666,-12.667 73.332,24 68.666,46 0,0 60.692,-67.956 88.18,-34.312 l 5.487,7.312 -1.775,5.714 c 0,0 -12.891,-26.381 -43.558,-9.048 -30.667,17.333 -67.334,66.167 -67.334,66.167 0,0 31.001,-60.5 -4.666,-70.5 -35.667,-10 -111.666,17.334 -150,47.667 -38.334,30.333 -97.334,83.334 -97.334,83.334 l -8,-3 c 0,0 38.667,-33 48.667,-68.5 10,-35.5 -0.5,-81.365 -33,-93.433 -32.5,-12.068 -81.048,-13.4 -131.191,31.266 z"
   id="path16770"
   inkscape:connector-curvature="0"
   style="fill:#668681" />
	<path
   d="m 1678.667,0 c 0,0 58,52.333 134.667,53.667 C 1890.001,55.001 1934.5,35.5 1934.5,35.5 c 0,0 113.879,64.004 211.939,39.502 l 10.895,-6.835 12.246,-11.143 C 2169.58,57.024 2071,97.5 1945,34 L 2084,0 h -24.5 l -122.25,27.5 c 0,0 -20.5,-9.25 -33.75,-21.5 0,0 11.25,-1.25 22,-6 H 1878 c 0,0 22,19 42.5,31 0,0 -115,44 -227.5,-31 h -14.333 z"
   id="path16772"
   inkscape:connector-curvature="0"
   style="fill:#668681" />
	<path
   d="m 1499,8 c 0,0 36,22.5 -6,59 l 2,-10.25 c 0,0 27,-25 -3.25,-44.25 L 1499,8 z"
   id="path16774"
   inkscape:connector-curvature="0"
   style="fill:#668681" />
	<path
   d="m 1406.5,0 c 0,0 -3.25,8.5 -7.75,25.5 -4.5,17 12.75,32.777 13,20.764 C 1412,34.251 1409.25,13 1422.75,0"
   id="path16776"
   inkscape:connector-curvature="0"
   style="fill:#668681" />
	<path
   d="m 2032,315 c 0,0 49,2 61.5,19.5 12.5,17.5 18.5,40.5 -14.5,55 l 1,-10.5 c 0,0 17.5,-20 9.5,-33.5 -8,-13.5 -34,-26.5 -57.5,-26.5 -23.5,0 0,-4 0,-4 z"
   id="path16778"
   inkscape:connector-curvature="0"
   style="fill:#668681" />
	<path
   d="m 1321.333,25.24 c 0,0 -4.667,-5.24 -4.667,-25.24 H 1333 c 0,0 -0.667,15.667 1.333,28.333 l -13,-3.093 z"
   id="path16780"
   inkscape:connector-curvature="0"
   style="fill:#668681" />
	<path
   d="m 1241.5,219 c 0,0 63,-42 79.5,-103 0,0 5,63 -71,112.5 l -8.5,-9.5 z"
   id="path16782"
   inkscape:connector-curvature="0"
   style="fill:#668681" />
	<path
   d="m 1313.326,155.433 c 0,0 30.174,69.067 109.424,69.067 v 8.75 c 0,0 -82.238,4.647 -111.827,-72.135 0,0 -7.272,-6.416 2.403,-5.682 z"
   id="path16784"
   inkscape:connector-curvature="0"
   style="fill:#668681" />
	<path
   d="m 1296.117,186.172 c 0,0 5.883,37.162 65.883,65.162 l -6,2.667 c 0,0 -48.927,-19.179 -64.63,-61.756 0,-0.001 -1.137,-16.901 4.747,-6.073 z"
   id="path16786"
   inkscape:connector-curvature="0"
   style="fill:#668681" />
	<path
   d="m 1165,182.55 c 0,0 78.5,26.45 104.5,-15.05 26,-41.5 18,-90 -28,-111 -46,-21 -93,12 -67.5,63.5 25.5,51.5 75.782,-0.046 44.667,-28.333 -7.333,-6.667 -17.333,0 -17.333,0 0,0 18.333,-18 36,6.667 17.667,24.667 -11.333,71 -57.667,41.667 -46.334,-29.333 -19.667,-82.496 15,-90.915 34.667,-8.419 80.994,5.338 100.667,53.582 19.673,48.244 -36,99 -98.667,97.667 0,-0.002 -28,4.765 -31.667,-17.785 z"
   id="path16788"
   inkscape:connector-curvature="0"
   style="fill:#668681" />
	<path
   d="m 986.667,0 c 0,0 49.333,38.667 72.333,0 h -6.667 c 0,0 -15.333,23.667 -52.333,0 h -13.333 z"
   id="path16790"
   inkscape:connector-curvature="0"
   style="fill:#668681" />
	<path
   d="m 1014,0 c 0,0 23.334,8.667 29.667,0 H 1014 z"
   id="path16792"
   inkscape:connector-curvature="0"
   style="fill:#668681" />
	<path
   d="m 1064.333,0 c 0,0 -5,59.667 -69.667,55 C 929.999,50.333 894,11.333 881,0 h -15.667 c 0,0 26,36.667 78.333,53.333 C 995.999,69.999 1065.5,77 1075,0 h -10.667 z"
   id="path16794"
   inkscape:connector-curvature="0"
   style="fill:#668681" />
	<path
   d="m 1116.5,155.374 c 0,0 -23,-15.874 -60.5,-48.874 -37.5,-33 -126.833,-34 -190.667,2.5 -63.834,36.5 -73,53.667 -116.667,55.333 -43.667,1.666 -47.333,-37 -37.667,-52.667 9.666,-15.667 45.667,-15.333 54,10 8.333,25.333 -21.333,33 -37,25 -15.667,-8 -2,-31.93 5.333,-23.632 0,0 0,7.298 5.667,7.298 5.667,0 9,-14 -8,-14.667 -17,-0.667 -21.333,27.333 1,36 22.333,8.667 48.333,0 50,-22.667 1.667,-22.667 -36.333,-42 -66,-34 -29.667,8 -22,65.333 19,76 41,10.667 77.752,-15.481 111,-42.333 33.248,-26.852 158.472,-62.14 216,-4.907 18.333,18.24 35,28.573 35,28.573 l 19.501,3.043 z"
   id="path16796"
   inkscape:connector-curvature="0"
   style="fill:#668681" />
	<path
   d="M 919.302,43.398 C 919.302,43.398 890,56.5 861,30 c 0,0 29.925,42.677 68.462,18.088 0,0 2.326,-7.639 -10.16,-4.69 z"
   id="path16798"
   inkscape:connector-curvature="0"
   style="fill:#668681" />
	<path
   d="m 873.283,42.861 c 0,0 -21.783,39.639 -88.783,8.139 0,0 39.94,48.033 93.97,-4.233 0,0 4.095,-3.044 -5.187,-3.906 z"
   id="path16800"
   inkscape:connector-curvature="0"
   style="fill:#668681" />
	<path
   d="m 666,0 c 0,0 5.5,28.5 -38.5,25.5 C 583.5,22.5 567,0 567,0 l -9.5,0 c 0,0 -26,23 -89,22.5 C 405.5,22 392,0 392,0 l -16.5,0 c 0,0 14,26.5 55,35 0,0 -71,31 -112.5,74.5 -41.5,43.5 -137.11159,59.73367 -220,73.5 -56.628125,9.40495 -68.347135,2.8099 -68.347135,2.8099 l -4.561979,9.21901 C 25.090886,195.02891 103.5,210 212.5,178 321.5,146 349,96 405.5,67.5 462,39 496,19 582,20 c 0,0 89.5,34.5 89.5,-20 z"
   id="path16802"
   inkscape:connector-curvature="0"
   style="fill:#668681"
   sodipodi:nodetypes="csccscccssccssccc" />
	<path
   d="m 622.667,0 c 0,0 17.666,15.667 24.333,0 h -4 c 0,0 -6,8.333 -14.333,0 h -6 z"
   id="path16804"
   inkscape:connector-curvature="0"
   style="fill:#668681" />
	<path
   d="m 650.39,28.881 c 0,0 -8.723,41.155 52.277,52.804 61,11.649 84.58,-15.422 90.123,-23.053 l -1.165,-2.909 -5.501,-2.962 c 0,0 -17.374,32.49 -74.624,26.99 -57.25,-5.5 -57.359,-47.205 -54.555,-53.353 0,-0.001 -2.916,-4.136 -6.555,2.483 z"
   id="path16806"
   inkscape:connector-curvature="0"
   style="fill:#668681" />
	<path
   d="m 344.667,23.333 c 0,0 -38.333,25 -89.333,16.333 C 204.334,30.999 192,22 178,0 H 167.333 C 167.333,0 101.666,35.667 0,0 v 10 c 0,0 34,15.667 77,16 43,0.333 69,-4.666 93.333,-17.333 0,0 18.333,29.333 62.333,35.333 44,6 95.334,9.667 112.001,-20.667 z"
   id="path16808"
   inkscape:connector-curvature="0"
   style="fill:#668681" />
	<path
   d="m 321.8,42.17 c 0,0 21.059,21.128 72.629,11.146 l 1.904,4.351 -11.84,1.375 c 0,0 -28.041,13.146 -70.267,-14.448 10e-4,0 2.708,-8.921 7.574,-2.424 z"
   id="path16810"
   inkscape:connector-curvature="0"
   style="fill:#668681" />
	<path
   d="m 269.641,156.658 c 0,0 84.859,29.842 175.859,6.342 91,-23.5 82,-62 181,-58 99,4 62,114 0,80 -62,-34 -24.75,-55.5 -4,-45.25 20.75,10.25 2.75,22 -5.75,17.75 -8.5,-4.25 -11,-11.25 2.5,-13.25 0,0 -31,-1.25 -4.75,15.25 26.25,16.5 37,-27.374 1,-31.937 -36,-4.563 -43.75,42.437 1,58.687 44.75,16.25 83.62,4.417 81.56,-35.25 C 696,111.333 669,83.667 601.333,91 c -67.667,7.333 -135.788,102.298 -317.894,58.816 0,0 -17.408,-2 -13.798,6.842 z"
   id="path16812"
   inkscape:connector-curvature="0"
   style="fill:#668681" />
	
	<path
   d="m 301.012,124.516 c 0,0 -24.512,-8.516 -50.012,-26.016 0,0 11.208,16.396 42.104,31.698"
   id="path16816"
   inkscape:connector-curvature="0"
   style="fill:#668681" />
	<path
   d="m 332.562,95.684 c 0,0 -73.402,-2.258 -125.562,-41.184 0,0 52.021,47.936 116.761,49.218"
   id="path16818"
   inkscape:connector-curvature="0"
   style="fill:#668681" />
	<path
   d="m 232.536,73.443 c 0,0 -31.536,9.891 -64.536,-2.109 -33,-12 -67.033,-27.098 -79.35,-45.382 0,0 -6.65,-7.266 -5.65,0.058 0,-0.001 12,28.99 71,48.99 59,20 84.786,2.274 84.786,2.274 0,0 0.286,-2.722 -6.25,-3.831 z"
   id="path16820"
   inkscape:connector-curvature="0"
   style="fill:#668681" />
	<path
   d="m 34.214844,36.424938 c 0,0 97.332996,15.595 90.999996,83.928002 0,0 -12,-69.333002 -90.999996,-75.000002 v -8.928 z"
   id="path16822"
   inkscape:connector-curvature="0"
   style="fill:#668681" />
	<path
   d="m 119.29284,89.762927 c 0,0 77.246,0.119 92.675,54.662003 0,0 -3.754,4.091 -5.42,-0.85 0,0 -31.239,-47.067003 -84.286,-46.837003 0,-0.001 -6.559,-2.513 -2.969,-6.975 z"
   id="path16824"
   inkscape:connector-curvature="0"
   style="fill:#668681" />
	<path
   d="m 262.31381,281.06197 c 0,0 41,-15 54,-41.5 l 11.5,-2.5 c 0,0 24.5,-14.5 90.5,57 0,0 -27.5,-54.915 9.5,-58.208 37,-3.293 125,6.208 208,65.208 83,59 85.5,60.5 85.5,60.5 0,0 -70,-46.5 -64.5,-110 5.5,-63.5 97.709,-62.545 143.367,-35.052 45.658,27.493 0,0 0,0 l 0.758,-4.198 -3.883,-1.552 c 0,0 -41.742,-31.198 -92.409,-17.198 -50.667,14 -72.667,56 -59,105.333 0,0 -100.318,-77.873 -215.333,-74.333 -32.5,1 -30,35.5 -28.5,42.5 0,0 -27.75,-38.5 -74.25,-37.5 l -21.5,-12 c 0,0 -3.25,38.5 -43.75,51.25 v 12.25 z"
   id="path16826"
   inkscape:connector-curvature="0"
   style="fill:#668681" />
	<path
   d="m 606.5,247 c 0,0 -45.25,-4 -66.5,-32 -21.25,-28 1.602,-57.873 31.75,-52.5 30.148,5.373 31.5,42.75 14,46 -17.5,3.25 -23.5,-3 -24,-9.5 -0.5,-6.5 3.25,-13.5 9.5,-13.5 6.25,0 15.5,8.75 3.75,3 -11.75,-5.75 -12.792,11.75 -5.896,14 6.896,2.25 23.396,3.986 19.646,-11.132 C 585,176.25 572.75,166.75 549,174.25 c -23.75,7.5 -10.5,56.25 57.5,72.75 z"
   id="path16828"
   inkscape:connector-curvature="0"
   style="fill:#668681" />
	<path
   d="m 152.82631,265.1901 c 0,0 180,-20 419,111 l -11,12.667 c 0,0 -220,-128 -408,-103.667 v -20 z"
   id="path16830"
   inkscape:connector-curvature="0"
   style="fill:#668681" />
<path
   d="m 900.44928,450.42589 c 0,0 78.5,26.45 104.50002,-15.05 26,-41.5 18,-90 -28.00002,-111 -46,-21 -93,12 -67.5,63.5 25.5,51.5 75.782,-0.046 44.667,-28.333 -7.333,-6.667 -17.333,0 -17.333,0 0,0 18.333,-18 36,6.667 17.667,24.667 -11.333,71 -57.667,41.667 -46.334,-29.333 -19.667,-82.496 15,-90.915 34.667,-8.419 80.99402,5.338 100.66702,53.582 19.673,48.244 -36.00002,99 -98.66702,97.667 0,-0.002 -28,4.765 -31.667,-17.785 z"
   id="path16788-6"
   inkscape:connector-curvature="0"
   style="fill:#668681" /><path
   d="m 2585.1467,133.40064 c 0,0 24.9999,-62.999996 -41.5001,-77.499996 -66.5,-14.5 -99.5,17.5 -101.5,38.75 -2,21.249996 82,31.249996 68,7.249996 0,0 -19.37,16.728 -43.5,3.5 -24.13,-13.227996 -9,-48.999996 46,-48.499996 55,0.5 65.5001,46.999996 60.5,63.999996 l 12.0001,12.5 z"
   id="path16760-0"
   inkscape:connector-curvature="0"
   style="fill:#668681" /><path
   d="m 3567.1903,228.99501 c 0,0 -68,-11 -129,38.99999 0,0 91.5,-41.49999 129,-29.49999 v -9.5 z"
   id="path16724-4"
   inkscape:connector-curvature="0"
   style="fill:#668681" /><path
   d="m 3367.1762,323.72462 c 0,0 -40,-9.334 -45,19.333 -5,28.667 14.334,61.334 51.334,59.334 l 3,-10.333 c 0,0 -48.667,7.333 -49.667,-31.667 -1,-39 40,-32.361 43,-28.014 l -2.667,-8.653 z"
   id="path16726-2"
   inkscape:connector-curvature="0"
   style="fill:#668681" /><path
   d="m 3376.5102,379.72462 c 0,0 -31,2.666 -33.667,-11.667 -2.667,-14.333 10.333,-18.333 10.333,-18.333 0,0 1,13 8.667,9 7.667,-4 -1.11,-14.333 -12.889,-14 -11.779,0.333 -23.777,42.333 27.556,40 v -5 z"
   id="path16728-9"
   inkscape:connector-curvature="0"
   style="fill:#668681" /><path
   d="m 3527.2591,146.20971 c 0,0 65,19 61,-36 -4,-55 -93.5,-63 -178,-12 -84.5,51 -244.833,41.667 -407.5,-3.667 -162.667,-45.334 -329.334,2 -334.667,62 -5.333,60 164.001,102.667 201.334,54.667 37.333,-48 4.833,-66.5 -40.667,-80 -45.5,-13.5 -73,32 -27,51 46,19 23,-33 11.5,-20 0,0 -1,-14.25 14.75,-7.5 15.75,6.75 27.25,41.25 -21.25,36.25 -48.5,-5 -53.5,-73.75 8,-69.75 61.5,4 111.5,55.5 57.5,100.5 -54,45 -157.5,9.5 -195,-31.5 -37.5,-41 -8.5,-86.5 119.5,-114 128,-27.5 276.667,52.382 454,44.691 177.333,-7.691 180.055,-75.492 287.334,-67.809 107.279,7.683 57.273,119.619 4.637,100.535 l -15.471,-7.417 z"
   id="path16738-0"
   inkscape:connector-curvature="0"
   style="fill:#668681" /></g>




<g
   id="Layer_9">
</g>
































<path
   d="m 1824.2982,164.63772 c 0,0 5.5,28.50001 -38.5,25.50001 -44,-3 -60.5,-25.50001 -60.5,-25.50001 l -9.5,0 c 0,0 -26,23.00001 -89,22.50001 -63,-0.5 -76.5,-22.50001 -76.5,-22.50001 l -16.5,0 c 0,0 14,26.50001 55,35.00001 0,0 -71,31 -112.5,74.5 -41.5,43.5 -137.1116,59.73367 -220,73.5 -56.6281,9.40495 -68.3471,2.8099 -68.3471,2.8099 l -4.562,9.21901 c 0,0 78.4091,14.97109 187.4091,-17.02891 109,-32 136.5,-82 193,-110.5 56.5,-28.5 90.5,-48.5 176.5,-47.5 0,0 89.5,34.5 89.5,-20.00001 z"
   id="path16802-7"
   inkscape:connector-curvature="0"
   style="fill:#668681"
   sodipodi:nodetypes="csccscccssccssccc" /><path
   d="m 1206.4366,238.1525 c 0,0 -38.333,25 -89.333,16.333 -51,-8.667 -63.334,-17.666 -77.334,-39.666 h -10.667 c 0,0 -65.66704,35.667 -167.33304,0 v 10 c 0,0 34,15.667 77,16 43,0.333 69.00004,-4.666 93.33304,-17.333 0,0 18.333,29.333 62.333,35.333 44,6 95.334,9.667 112.001,-20.667 z"
   id="path16808-8"
   inkscape:connector-curvature="0"
   style="fill:#668681" /><path
   d="m 371.53725,51.700429 c 0,0 21.059,21.128 72.629,11.146 l 1.904,4.351 -11.84,1.375 c 0,0 -28.041,13.146 -70.267,-14.448 10e-4,0 2.708,-8.921 7.574,-2.424 z"
   id="path16810-4"
   inkscape:connector-curvature="0"
   style="fill:#668681" /></svg>