<?xml version="1.0" encoding="UTF-8" standalone="no"?>
<!-- Generator: Adobe Illustrator 15.1.0, SVG Export Plug-In . SVG Version: 6.00 Build 0)  -->

<svg
   xmlns:dc="http://purl.org/dc/elements/1.1/"
   xmlns:cc="http://creativecommons.org/ns#"
   xmlns:rdf="http://www.w3.org/1999/02/22-rdf-syntax-ns#"
   xmlns:svg="http://www.w3.org/2000/svg"
   xmlns="http://www.w3.org/2000/svg"
   xmlns:sodipodi="http://sodipodi.sourceforge.net/DTD/sodipodi-0.dtd"
   xmlns:inkscape="http://www.inkscape.org/namespaces/inkscape"
   version="1.1"
   x="0px"
   y="0px"
   width="3635px"
   height="768px"
   viewBox="0 0 3635 768"
   enable-background="new 0 0 3635 768"
   xml:space="preserve"
   id="svg12334"
   inkscape:version="0.48.3.1 r9886"
   sodipodi:docname="rock_farm_by_quanno3-d4tuhe0.svg"
   inkscape:export-filename="/home/dos/git/SuperDerpy/data/assets/svg/rockfarm/foreground.png"
   inkscape:export-xdpi="90"
   inkscape:export-ydpi="90"><metadata
   id="metadata14462"><rdf:RDF><cc:Work
       rdf:about=""><dc:format>image/svg+xml</dc:format><dc:type
         rdf:resource="http://purl.org/dc/dcmitype/StillImage" /><dc:title></dc:title></cc:Work></rdf:RDF></metadata><defs
   id="defs14460" /><sodipodi:namedview
   pagecolor="#ffffff"
   bordercolor="#666666"
   borderopacity="1"
   objecttolerance="10"
   gridtolerance="10"
   guidetolerance="10"
   inkscape:pageopacity="0"
   inkscape:pageshadow="2"
   inkscape:window-width="1280"
   inkscape:window-height="747"
   id="namedview14458"
   showgrid="false"
   inkscape:zoom="0.32009755"
   inkscape:cx="2317.3476"
   inkscape:cy="259.03809"
   inkscape:window-x="0"
   inkscape:window-y="-3"
   inkscape:window-maximized="1"
   inkscape:current-layer="svg12334" />

<g
   id="Layer_2">
	<linearGradient
   id="SVGID_1_"
   gradientUnits="userSpaceOnUse"
   x1="1817.5005"
   y1="509.832"
   x2="1817.5005"
   y2="4.882813e-004">
		<stop
   offset="0"
   style="stop-color:#72948C"
   id="stop12341" />
		<stop
   offset="1"
   style="stop-color:#809D99"
   id="stop12343" />
	</linearGradient>
	
</g>







<g
   id="Layer_9">
</g>




























<g
   id="Layer_41">
	<linearGradient
   id="SVGID_16_"
   gradientUnits="userSpaceOnUse"
   x1="1555.8706"
   y1="745.1885"
   x2="1389.7321"
   y2="-36.4317">
		<stop
   offset="0"
   style="stop-color:#284958"
   id="stop14308" />
		<stop
   offset="1"
   style="stop-color:#131413"
   id="stop14310" />
	</linearGradient>
	<path
   fill="url(#SVGID_16_)"
   d="M954,736.5l31-24l72.5-9l-4.5-91c0,0,97.667-87.5,139-266.167c0,0,51.334-21,83.667-28.333   s65.667-15.666,72-18.333s7.667-4,11-10.333s23-36.667,56-58.667c0,0,7.667-25.667,5.667-49.333s-3.333-83.667-39-96.667   c0,0-13-7.667-36-16.333s-54.667-19.667-65.333-22s-29-0.667-38.667-3.667c0,0-5-28.667-23-42.667H1249c0,0,19.75,20.75,41,20.25   s32.5,2.75,44.25,1.5s38.75-1.75,41-1c0,0-3-12.75-8.25-20.75h30.25c0,0,4.5,57.5,34.25,53.25c0,0,9.667,15.25,30,13.25   c0,0,4.167-49.167-15.5-66.5h69.667c0,0-31.667,13.5-15.667,26c0,0,0.5,20.25-0.25,38s4.5,37,7.75,49.5s9.75,38.75,15.25,47.25   s10.5,13.25,31,9s90.583-30.083,140.583-61.417s52-45.333,52-45.333s74,1.667,133.667-28.667c0,0,20.25,0.167,28.75,9.667   s38.5,18,38.5,18s7.25-6,11.5-9S1979,38.75,1977.5,0h20c0,0,2.75,18.5-3.5,30s-25.25,40-28.25,43.5s-8.25,6.75-16.25,3.75   s-58-20.25-109.75-7.75S1772.5,85,1759.25,96S1738,115.75,1721,128.75s-72.667,58.584-104,78.917s-71.333,59.666-98.667,93.666   S1452,455,1447.5,478.5c0,0-72.5,24-113,71.5S1263,692.5,1324,714c0,0,24.333,41.667,70.333,41.334s53.333,3.808,54.667,12.57   L993.333,768L954,736.5z"
   id="path14312" />
	<path
   opacity="0.2"
   fill="#92AFBC"
   d="M1420,768c0,0-13.333-6.165-22.667-7.999s-16.195-3.339-16.181-5.753   c0,0-1.863-0.342-2.436-0.464c0,0-0.092,5.501,10.658,7.108s18.625,3.482,21,7.107H1420z"
   id="path14314" />
	<path
   opacity="0.2"
   fill="#92AFBC"
   d="M1344.575,737.037c0,0,2.092,16.962,9.759,20.796s19.167,7.5,20.5,10.167h3.883   c0,0-1.671-4.067-14.05-7.833s-17.364-14.121-17.349-20.978C1347.318,739.189,1345.299,737.632,1344.575,737.037z"
   id="path14316" />
	<path
   opacity="0.2"
   fill="#92AFBC"
   d="M1315.555,710.253c0,0,11.695,16.247,16.695,35.497c0,0-9.275-24.508-19.263-37.004   C1312.987,708.746,1314.93,709.916,1315.555,710.253z"
   id="path14318" />
	<path
   opacity="0.2"
   fill="#92AFBC"
   d="M1298.071,693.725c0,0,2.596,17.108,2.763,28.275s0,24.833,0,24.833   s3.333,15.167,1.833,21.167H1301c0,0,0.084-14.001-1.833-19.917c0,0-0.167-8.962-0.042-20.835s-3.341-37.696-3.341-37.696   S1297.713,693.147,1298.071,693.725z"
   id="path14320" />
	<path
   opacity="0.2"
   fill="#92AFBC"
   d="M1275.25,768l1-7.107c0,0-4.25-8.568-4.25-23.855s2.25-37.787-17.5-68.537   c0,0,9-33.75,19.25-66.25s24.25-63.75,41.5-83.25s33-41,45-65.5s15.75-32.75,16.75-43.75s3-19.846,10.5-25.298   s11-14.702,29.25-40.452s33.75-50,37.5-66s9-35.25,16.5-48.5s11.5-35.25,15-49.75s1.917-19.417-0.917-28.25s-5.167-24.5-5.333-33.5   s-4.397-27.167-3.449-43.167S1481.667,36,1481.667,36S1472,64.167,1474,85.833s4.334,42.833,5.167,51.5s2,10.5,4.667,17.167   s3,11,1.5,17s-7.667,40.5-13.833,52s-15,34-18.5,48.333s-8.5,25.667-18.333,40s-24.167,35.333-33.667,49.5s-23.333,27.666-25,37.5   s-2,25.5-14.5,45.667s-11.667,26-27.333,44s-37.666,45.501-40.5,55.167s-14.5,30.999-27.667,73.166s-14,51-14,51   s12.667,20.834,15.167,33.834s2.667,26.832,2.833,38.166s3.833,20.334,3,28.167H1275.25z"
   id="path14322" />
	<path
   opacity="0.2"
   fill="#92AFBC"
   d="M1256,768c0,0,0.5-6.25-4-16.75s-16.25-30.5-19.5-73.75s-9-79.75-1.25-91.5   c0,0-11.5,12.75-16.25,23.25c0,0,8.545-10.145,11.333-14.25c0,0-2.667,23.667,0,47.167s5.833,64.167,13.167,84   S1254.833,759,1254.833,768H1256z"
   id="path14324" />
	<path
   opacity="0.2"
   fill="#92AFBC"
   d="M1198.667,641c0,0-7.333,10.001-7.333,20.667   C1191.333,661.667,1195.333,650.333,1198.667,641z"
   id="path14326" />
	<path
   opacity="0.2"
   fill="#92AFBC"
   d="M1193.5,602.75c0,0-5.75,20.25-11.25,37s-13.5,47.492-5.5,68.996S1201,752,1203,768h1.5   c0,0-0.125-14.456-15.065-41.002s-15.685-29.498-10.685-58.248S1198.25,608.75,1193.5,602.75z"
   id="path14328" />
	<path
   opacity="0.2"
   fill="#92AFBC"
   d="M1161,768c0,0-1.5-15.25-1.75-28.75s-0.75-37.5,8.75-25.75s19.5,41.5,19.75,54.5h-2   c0,0-4.068-24.274-12.38-40.752S1161.75,711,1161.75,724s0.25,36.25,1.5,44H1161z"
   id="path14330" />
	<path
   opacity="0.2"
   fill="#92AFBC"
   d="M1139.75,768c0,0,0.5-24.504-1-48.252s-11.75-45.998-3-59.748s20.25-27,29.25-36   s3.5-26.25,0.75-36s0.25-39.5,11-56.25s8.75-21.5,8.75-21.5s-2.75,5.75-6,10.5s-19.25,26.25-18.25,47.75s6.25,34,6,38.75   s-1.25,9.25-9.5,16s-22.75,29.5-27,43s3,27,4.5,53.25s1.25,48.5,1.25,48.5H1139.75z"
   id="path14332" />
	<path
   opacity="0.2"
   fill="#92AFBC"
   d="M1041.25,768c0,0,28-13.75,38.5-14.5c0,0-13.5,4.75-28.5,14.5H1041.25z"
   id="path14334" />
	<path
   opacity="0.2"
   fill="#92AFBC"
   d="M1003.75,768c0,0,53.5-42.5,112.25-30.75c0,0,0-19.5-4.25-30.25s-5.625-12.75-8-15.25   s0-6.5,2.75-11.125s13.5-17.125,16.75-27.375s3.75-30.75,2.75-38s-1.5-8-11-7.25s-16.5,3.75-19.25,5.25s-6.75,7.539-0.5-5.48   s16.25-30.27,24-37.02s23-19.5,26.25-23s5.75-7.5,7-15.25s17.142-47.418,43.5-67.5c5.25-4,4.5-5.5,4.5-5.5s-8,4.25-17.5,14   s-31.75,46.5-34.75,66.25c0,0-12.75,10.75-23.25,20.25s-29.75,39-33,47.5s-8.25,16.5,3.5,10.5s28-12,28.25-4.25s3,30.5-7,45   s-23.473,29.104-14.606,37.75s11.356,35.75,11.356,35.75s-30.25-8.395-66.5,6.928S998.25,768,998.25,768H1003.75z"
   id="path14336" />
	<path
   opacity="0.2"
   fill="#92AFBC"
   d="M1191.5,571.25c0,0,12.25-16,33.75-35.75s65-47.75,85.75-60.25s24.5-21.417,30.167-41.25   s29.833-55.833,33.667-63.167c0,0-13.167,15.667-24.333,37.667s-12.313,29.147-16,39.667s-15.333,23.5-52.167,42   S1185.667,568.667,1191.5,571.25z"
   id="path14338" />
	<path
   opacity="0.2"
   fill="#92AFBC"
   d="M1191.103,487c0,0,8.647-4.75,26.897-13.25s33.25-9.25,43.75-9s16.437,1,20.968-10.75   s19.282-34.5,46.532-55.5s34.006-36.25,40.628-52.25s20.622-51.5,27.122-67.5s12.5-24.5,30.25-40s19.75-72,18-85.75   s-4.25-48.75-4-65c0,0-0.5,47.25,2.75,75.5s-11,67.75-17.25,73s-20.921,13.21-33.336,47.716S1363,357.25,1358.5,364.25   s-13.797,19.435-30.25,31.5c-22.5,16.5-37.5,38.25-43.5,48.25s-3.5,17.75-23.25,18.75s-27-0.625-35.125,3.875   S1186.956,484.5,1191.103,487z"
   id="path14340" />
	<path
   opacity="0.2"
   fill="#92AFBC"
   d="M1190.727,431c0,0,11.773-4.667,28.273-10.5s31.5-6,34.5,1s1.333,11.334,7,6.667   s42-43,45.833-47s0.333-4.5-8.833-4.5s-10.667-0.167-1.333-7.833s25-12.333,34.333-15.333s8.667-5.833,17.167-23.833   s28.473-59.696,38.57-75.431c0,0-4.39,3.624-5.896,6.194c0,0-14.839,26.904-21.506,42.237s-17.167,36-20,41.5   s-2.667,5.333-7.833,7.167s-22.5,6.167-35.625,15.417s-8,12,1.125,12.375s10.75-1.625,3.75,5.5s-34,36.125-38.5,39.625   s-2.875,5.375-5.125-2.625s-16.5-10.75-34-4.5S1189.578,428.875,1190.727,431z"
   id="path14342" />
	<path
   opacity="0.2"
   fill="#92AFBC"
   d="M1193.333,370.833c0,0,2.667,4.833,24.167,4.333s32.167-1,38.667-1.333s11.5-3.5,19.833-9.5   s54.5-39.833,61.667-48.5c0,0-22.5,16.167-40.833,30.667s-32.167,23.667-48,24.333S1202.667,374.333,1193.333,370.833z"
   id="path14344" />
	<path
   opacity="0.2"
   fill="#92AFBC"
   d="M1257.005,323.016c0,0-11.505,12.15-15.838,17.484s1,12.167,10.833,12.167   s38.167-14.333,65.167-38.333c0,0-16.167,12.167-31.5,21.333s-30.628,15.881-38,13.667s-9.51-4.841,12.495-27.254   C1260.162,322.08,1258.6,322.533,1257.005,323.016z"
   id="path14346" />
	<path
   opacity="0.2"
   fill="#92AFBC"
   d="M1474.711,392.893c0,0-16.961,8.607-31.461,26.107s-32.25,48.75-17.75,38.25   s34.25-37.75,34.25-37.75s-25.125,26.875-29.625,30.75s-10.625,10.375-4-2.625s30.634-42.201,47.567-51.976   C1473.692,395.649,1474.11,394.512,1474.711,392.893z"
   id="path14348" />
	<path
   opacity="0.2"
   fill="#92AFBC"
   d="M1438.75,457.25c0,0-10.875,7.125-22.5,16.375S1374,505.75,1381.75,489   s18.25-28.125,24.5-43.875s19.5-31.625,31.125-38.25s30.125-22.375,36.75-31.25S1492.75,344.75,1494,341.75   c0,0-7.375,6.625-13.875,18.25s-10.5,18.625-21.5,26.875s-22,17.125-31.125,21.75s-14.375,19.375-19.875,28.25   s-9.5,20.5-21.375,36.625s-15.875,31.625-2.5,23.875s26.5-16.5,33.375-22.5S1438.375,459.625,1438.75,457.25z"
   id="path14350" />
	<path
   opacity="0.2"
   fill="#92AFBC"
   d="M1428.5,369.167c0,0,12.333-12.5,21.333-23.667s25.667-28.833,31.667-34.833   s11.834-22.5,14.167-30.667s9.5-18.167,17.833-28.667s18.833-27.333,27.167-39.667s24-39.833,24-39.833s-20.5,31.5-31.667,46.833   s-25.667,36.166-30.667,42.333s-9,15.833-12.667,26.5s-7.5,22.834-20.667,33.167S1438.167,358,1428.5,369.167z"
   id="path14352" />
	<path
   opacity="0.2"
   fill="#92AFBC"
   d="M1429.5,362.333c0,0,12.167-26.833,18-38.167s18.833-33.667,24.5-43.667s21.167-35,25.833-44   s29.99-59.848,32.912-67.34l1.88,0.872c0,0-11.792,23.802-22.292,44.969s-20.666,39.834-31.167,57.167s-21.834,39.333-30.5,55   S1431.833,360.333,1429.5,362.333z"
   id="path14354" />
	<path
   opacity="0.2"
   fill="#92AFBC"
   d="M1521.992,296.842c0,0-3.242-22.342,12.258-45.092s26.75-34.5,35.25-42.5s16-25,19-33.25   s9.586-12.399,14.668-22.825c0,0,4.428-1.772,4.915-1.971c0,0-12.833,17.795-16.833,24.795s-9.478,26.02-22.25,36.5   s-26.75,25.75-33.25,39.125s-14.973,34.682-10.736,41.591L1521.992,296.842z"
   id="path14356" />
	<path
   opacity="0.2"
   fill="#92AFBC"
   d="M1550.503,264.997c0,0-5.503-8.997,9.831-28.997s34.5-39.999,41.833-54   s21.23-33.979,26.615-39.573l3.34-1.489c0,0-8.622,12.396-18.455,26.729s-16,28.5-25,38.5s-41.574,49.924-35.621,56.212   L1550.503,264.997z"
   id="path14358" />
	<path
   opacity="0.2"
   fill="#92AFBC"
   d="M1639.333,149.667c0,0-13,15.667-14.333,23.667S1619,187,1614.333,194s-1.667,13.333,6.333,8   s18.667-13.333,18.667-13.333s-11.458,4.708-15.958,7.833s-13,10-3.25-4.25s6.25-18.25,10.375-25.375   S1639.333,149.667,1639.333,149.667z"
   id="path14360" />
	<path
   opacity="0.2"
   fill="#92AFBC"
   d="M1652.354,182.388c0,0,13.896-23.138,25.896-29.888s20.75-11.25,23.5-19   s3.583-12,17.75-23.333S1741,88.5,1770.25,67c0,0-21.75,12.25-40.5,29.75s-27.419,24.094-30.75,34.5s-10.5,11.75-19.5,17.25   S1657.459,166.526,1652.354,182.388z"
   id="path14362" />
	<path
   opacity="0.2"
   fill="#92AFBC"
   d="M1414.749,47.846c0,0-4.749,6.821,3.918,41.321s10.833,53.666,9.833,71.333   s-5.752,33.551-8.126,37.359l-0.503,5.723c0,0,10.462-22.415,10.962-42.749s-4.05-47-8.692-65.667s-9.61-38.112-6.126-46.223   L1414.749,47.846z"
   id="path14364" />
	<path
   opacity="0.2"
   fill="#92AFBC"
   d="M1394.009,92.324c0,0-2.342-9.491-5.675-24.824s-5.412-19.167-16.123-22.333   s-15.044-11.333-15.044-11.333S1369,43,1377,44.5s9.667,5.833,11.667,15.5s8.831,35.819,8.831,35.819   S1394.408,92.684,1394.009,92.324z"
   id="path14366" />
	<path
   opacity="0.2"
   fill="#92AFBC"
   d="M1391.25,22c0,0-4.083-14.833-7.75-22h-3.188C1380.313,0,1386,9.833,1391.25,22z"
   id="path14368" />
	<path
   opacity="0.2"
   fill="#92AFBC"
   d="M1325.146,21.963c0,0,19.354,15.704,29.688,23.704s25.94,29.491,23.637,37.412l-2.347-1.235   c0,0-3.624-17.011-13.29-26.178s-41.351-33.917-41.351-33.917L1325.146,21.963z"
   id="path14370" />
	<path
   opacity="0.2"
   fill="#92AFBC"
   d="M1277.755,18.387c0,0,18.412,7.446,26.579,16.613s22.284,20.694,43.225,34.181l10.137,4.089   c0,0-16.863-9.27-31.529-21.27s-24.889-25.471-40.194-31.902C1285.972,20.098,1280.64,19.386,1277.755,18.387z"
   id="path14372" />
	<path
   opacity="0.2"
   fill="#92AFBC"
   d="M1264.667,22c0,0,6.265,11.397,20.632,25.699l4.277,1.256c0,0-14.451-14.83-17.576-19.705   S1264.667,22,1264.667,22z"
   id="path14374" />
	<path
   opacity="0.2"
   fill="#92AFBC"
   d="M1222.75,0c0,0,10.375,10.75,17,15.625s9.75,6.024,12.625,4.012s7.5,0.113,7.5,0.113   s-3.5-0.125-7.25,2.875s-12.75-3-17.625-8.5S1221.5,0,1221.5,0H1222.75z"
   id="path14376" />
	<linearGradient
   id="SVGID_17_"
   gradientUnits="userSpaceOnUse"
   x1="2077.001"
   y1="35.188"
   x2="2069.2251"
   y2="-1.3942">
		<stop
   offset="0"
   style="stop-color:#284958"
   id="stop14379" />
		<stop
   offset="1"
   style="stop-color:#131413"
   id="stop14381" />
	</linearGradient>
	<path
   fill="url(#SVGID_17_)"
   d="M2062.667,0c0,0,8.167,5.333,16,34.833c0,0,1.832-18-2.334-34.833H2062.667z"
   id="path14383" />
</g>
<g
   id="Layer_42">
	<path
   fill="#452019"
   d="M2049,8c0,0-4.75,23.5,15.25,19.5c0,0-10,14.5-10.25,21.5c0,0-10-15.75-21.75-5.75l-2.417-3.167   c0,0,12.916-13.667-6-24.167c0,0,6.917,0,7.167-9.083C2031,6.833,2042,15.667,2049,8z"
   id="path14386" />
	<path
   fill="#451D16"
   d="M2081.25,42.875c0,0,0.75,2.75,2.625,4.25c0,0-18.625,22.875,5,24.5V74c0,0-8.375,6.75-8.25,14   c0,0-9.125-14-24.375-15c0,0,8.453-8.779,7-25.25C2063.25,47.75,2075.25,49.25,2081.25,42.875z"
   id="path14388" />
	<path
   fill="#692F25"
   d="M1672.25,36.75l-4.25,7c0,0,9.25,12-1.25,21.375c0,0,10.125,3.125,12.625,9.75c0,0,9.75-12.625,18.125,3.5   c0,0-2.5-14.875,10.875-14.625c0,0-9.625-3.125-1-24.625C1707.375,39.125,1678.25,52.125,1672.25,36.75z"
   id="path14390" />
	<path
   fill="#491E1B"
   d="M1568.667,47.333c0,0,11.666,2.5,17.333-9.167c0,0,0,15.5,14.333,16.5c0,0,0,9.333,3.833,18   c0,0-6.667-1.667-13.833-1.667c0,0-9.833-6.833-21.667,8.5c0,0-9.333-9.833-13.5-10C1555.167,69.5,1584,65,1568.667,47.333z"
   id="path14392" />
	<path
   fill="#482017"
   d="M1332.25,113c0,0,5.083,14.167,27.917,21.333c0,0-22.167,6.667-7.5,20.167c0,0-10.667,6.167-10.167,9.667   c0,0-6.667-4.833-12.167-1S1319.5,165,1319.5,165s15.798-18.312,1.982-25.739c0,0,9.517-7.667,3.184-13.547   C1324.667,125.714,1333,124,1332.25,113z"
   id="path14394" />
	<path
   fill="#471E1B"
   d="M1264.667,128c0,0,3,6.5,4.667,6.833c0,0-2.167,13.333,0,18.333s-4.667,15-9.167,18.667   c0,0-11.333-11.5-31.333-11.333c0,0,6.167-6.666,11.5-9.333s0.5-14.5,0.5-14.5S1266,147.167,1264.667,128z"
   id="path14396" />
	<path
   fill="#471F17"
   d="M1274.167,69.667c0,0,19,9.666,17.167,16.333s-5,9.833-3.167,12.5c0,0,5.5-5.5,11.5,0.667   s10.666,9.833,12.333,6.167l22.5,0.167c0,0-2.833-5.833-6.5-7.5s-9.667-4.833,1.833-19.833c0,0-27.667,5.166-38-20.667   C1291.833,57.5,1295.5,74.667,1274.167,69.667z"
   id="path14398" />
	<path
   fill="#452117"
   d="M1260.667,64.826c0,0-0.504,10.343,14.333,13.341c0,0-11.667,12.5,0,24.167l-0.417,9.417   c0,0-9.75-7.083-27.583-1.167c0,0,8.75-10.708-0.75-22.583C1246.25,88,1259.834,92.152,1260.667,64.826z"
   id="path14400" />
	<path
   fill="#41201F"
   d="M1271.125,0c0,0,1.125,3,1.125,6.5c0,0,12.5-5.5,25.875,7.625c0,0,0.125-5.375-1-8.625s-1.25-5.5-1.25-5.5   H1271.125z"
   id="path14402" />
</g>
<g
   id="Layer_43"
   transform="translate(59.356905,2.1706796e-8)">
	<path
   d="m 1621,619.5 c 0,0 0.667,-2.5 0.667,-11.5 0,0 20,-15.667 67.333,-15 47.333,0.667 51.333,6.999 69.333,7.333 18,0.334 28.667,0.668 34.333,1.334 5.666,0.666 5.334,-0.522 11.667,4.905 6.333,5.427 18.333,15.761 18.333,15.761 0,0 16.666,24 35.333,46.667 18.667,22.667 55.667,81.667 57.667,99 L 1892.249,767.904 1621,619.5 z"
   id="path14405"
   inkscape:connector-curvature="0"
   style="fill:#1e2325" />
	<path
   d="m 1590.5,768 c 0,0 23,-85.5 22,-105.5 0,0 7,-33 8.5,-43 0,0 57.001,-3.499 79,2.167 21.999,5.666 98,27.332 102,28.999 4,1.667 8.001,1.167 11,6.834 2.999,5.667 18.25,25.5 28.5,38.5 10.25,13 19.5,29 30.5,42.75 11,13.75 20.25,29.154 20.25,29.154 L 1590.5,768 z"
   id="path14407"
   inkscape:connector-curvature="0"
   style="fill:#141414" />
	<path
   d="m 1839.334,730.5 c -4.5,-14.833 -11.668,-31.235 -13.834,-37.284 -2.166,-6.049 -9,-29.715 -11.167,-36.049 -2.167,-6.334 -0.979,-8.955 -21.958,-14.167 -20.979,-5.212 -26.583,-9.625 -33.917,-14.375 -1.502,-0.973 -4.39,-2.509 -8.354,-4.336 3.75,-2.097 7.2,-4.096 10.138,-5.905 11.294,4.127 17.382,7.366 17.382,7.366 -4.948,-3.268 -10.254,-6.05 -15.69,-8.425 4.584,-2.912 7.587,-5.232 7.899,-6.492 0,0 -4.228,2.388 -9.665,5.736 -4.383,-1.834 -8.833,-3.408 -13.239,-4.761 17.453,-7.869 26.741,-11.138 26.741,-11.138 l -5.337,-0.134 c 0,0 -10.866,4.44 -24.586,10.33 -24.205,-6.895 -46.123,-7.242 -46.123,-7.242 16.78,2.096 31.254,5.258 43.112,8.539 -3.271,1.412 -6.66,2.89 -10.076,4.397 -16.531,-5.701 -38.306,-11.218 -60.411,-11.812 0,0 32.6,5.009 57.051,13.301 -5.792,2.578 -11.555,5.205 -16.801,7.699 -23.667,11.25 -56.667,35.083 -67.833,43.75 -11.166,8.667 -16.833,23.833 -20.333,40.167 -3.5,16.334 -9.5,58.333 -9.5,58.333 h 4 c 0.667,-9.5 4.167,-34.5 7.167,-49 3,-14.5 7.5,-36.667 15.5,-43.333 8,-6.666 21.167,-18 36.333,-26.5 13.592,-7.618 34.279,-19.646 55.073,-29.847 2.354,0.862 4.609,1.756 6.719,2.68 2.975,1.304 5.555,2.438 7.809,3.432 -7.64,3.79 -16.725,7.151 -24.559,11.068 -10.5,5.25 -22.875,13.375 -30.625,16.5 -7.75,3.125 -8.875,8 -14.875,15.75 -6,7.75 -15.75,19.252 -22.875,28.252 -7.125,9 -7.5,15.375 -12.375,31.875 -4.875,16.5 -9.875,34.625 -9.875,39.125 h 3.75 c 0,0 7.25,-31.75 11.125,-44.125 3.875,-12.375 7.375,-21.625 11.625,-28 4.25,-6.375 25.125,-32.125 27.5,-35.5 2.375,-3.375 6.625,-4.875 26.25,-15.125 9.759,-5.097 24.194,-12.471 36.387,-19.176 14.609,6.464 13.907,6.426 16.988,8.551 3.625,2.5 32,11.25 37.125,12.5 5.125,1.25 7.75,1.125 10.625,11.125 2.875,10 7.708,27.251 12.375,37.751 4.667,10.5 12.001,31 14.334,41.333 2.333,10.333 5.166,20.499 5.833,30.666 h 2.5 c 0,0 -2.833,-22.667 -7.333,-37.5 z M 1734.085,617.771 c 1.349,-0.648 2.696,-1.289 4.04,-1.918 2.068,-0.967 4.047,-1.881 5.943,-2.746 5.367,1.559 10.139,3.121 14.28,4.593 -1.85,1.157 -3.79,2.396 -5.723,3.675 -1.202,0.795 -2.496,1.561 -3.85,2.309 -4.005,-1.802 -8.98,-3.846 -14.69,-5.913 z"
   id="path14409"
   inkscape:connector-curvature="0"
   style="fill:#060808" />
	<path
   d="m 1806.5,614.688 c 0,0 13,24.812 18.667,33.646 5.667,8.834 9.001,18.334 12.667,22.667 3.666,4.333 5.191,11.337 10.096,24.752 4.905,13.415 13.736,39.081 25.07,72.247 h -4.166 c 0,0 -14,-38.667 -19.5,-55.667 -5.5,-17 -11.167,-35.333 -16.667,-44.333 -5.5,-9 -28.272,-48.863 -26.167,-53.312 z"
   id="path14411"
   inkscape:connector-curvature="0"
   style="fill:#030505" />
	<path
   d="m 547.667,670.334 28.667,-30.667 c 0,0 8,16.666 37,15.333 l 98,-56.667 c 0,0 39,7.334 63,10.667 24,3.333 105.333,-10e-4 115,-1.667 L 913,702 c 0,0 67.333,48 73.333,53 6,5 9,6 9.667,13 H 550 l -2.333,-97.666 z"
   id="path14413"
   inkscape:connector-curvature="0"
   style="fill:#1d2222" />
	<path
   d="m 489.333,768 30,-28.999 c 0,0 -9,-5 -8.333,-30.667 l 36.667,-38 c 0,0 26,12.999 39.667,21.333 13.667,8.334 46.667,-0.334 60.667,-13 14,-12.666 37.667,-42 85.667,-33.333 48,8.667 51,24.999 64.333,54.333 13.333,29.334 36.333,60.666 43.667,68.333 H 858 c 0,0 -6.75,-21.25 -5.25,-31.25 1.5,-10 4,-23.75 14.75,-13.5 10.75,10.25 45.75,36.25 50.75,44.75 H 489.333 z"
   id="path14415"
   inkscape:connector-curvature="0"
   style="fill:#151514" />
	<path
   d="m 583.957,647.832 c 0,0 -19.79,34.167 -24.957,45.001 -5.167,10.834 -31,65.334 -31.667,75.167 h 2 c 0,0 29.833,-72.334 36.167,-82.667 6.334,-10.333 10.167,-18.834 13.167,-21.5 3,-2.666 2.5,-5.832 4.333,-8.166 1.833,-2.334 3.799,-6.028 3.799,-6.028 0,0 -2.632,-1.656 -2.842,-1.807 z"
   id="path14417"
   inkscape:connector-curvature="0"
   style="fill:#080b0b" />
	<path
   d="m 535.25,768 c 0,0 16.25,-31.25 30,-43.75 C 579,711.75 592.098,698 586.799,709.5 581.5,721 565,753.25 564.25,768 h -2.624 c 0,0 4.874,-23.625 10.249,-33.875 5.375,-10.25 12.625,-24.25 4.5,-16.875 C 568.25,724.625 559,734.75 556,738 c -3,3.25 -7.875,12.375 -10.75,17.125 -2.875,4.75 -7.125,12.875 -7.125,12.875 h -2.875 z"
   id="path14419"
   inkscape:connector-curvature="0"
   style="fill:#0d0c0a" />
	<path
   d="M 818.751,610.376 829,663.5 l 34,10.25 c 0,0 7.776,13.748 14.248,25.054 3.168,5.533 6.023,10.481 7.502,12.946 4.5,7.5 20.25,30.5 22.5,34.5 2.25,4 12.25,17.75 12.5,21.75 h 1.75 c 0,0 -0.833,-6.249 -5.167,-11.666 -4.334,-5.417 -33.208,-52.209 -33.208,-52.209 0,0 18.875,12.25 26.625,19 7.75,6.75 28.875,27.125 32.75,32.5 3.875,5.375 6.625,6.125 7.5,12.375 h 2.75 c 0,0 0.875,-3.125 -5.375,-10.25 -6.25,-7.125 -28.875,-29.375 -36.5,-36.375 -7.625,-7 -24,-18.5 -30.5,-21.625 L 864.75,670.875 831.167,662 l -9.498,-51.658 -2.918,0.034 z"
   id="path14421"
   inkscape:connector-curvature="0"
   style="fill:#050a0a" />
	<path
   d="M -15.620238,414.87214 C 17.586508,389.86715 50.793254,397.16421 84,413.5 l 83.5,-45.5 90.5,201 34.5,9.25 c 0,0 12.75,29.75 19.5,40 6.75,10.25 18,21.75 23.25,26.25 5.25,4.5 9.5,9 13.75,18.25 4.25,9.25 23.25,46 8,67.25 l 46.25,-6.25 17.5,44.25 -445.742381,3.02805 c -31.411304,-84.95092 -42.624578,-238.47834 9.372143,-356.15591 z"
   id="path14423"
   inkscape:connector-curvature="0"
   style="fill:#1d2322"
   sodipodi:nodetypes="cccccsssccccc" />
	<path
   d="m -34.364524,477.28724 c 0,0 139.031524,-88.95424 194.364524,111.04576 0,0 12.5,-1 19.333,-6 6.833,-5 10.166,-6.499 18.333,4.334 C 205.833,597.5 231.5,655 240.5,696.5 c 9,41.5 30.5,57 42.5,60 12,3 16.25,6.75 17.25,11.5 l -322.118334,-6.3441 c -5.761533,-94.39052 -36.28976,-182.58936 -12.49619,-284.36866 z"
   id="path14425"
   inkscape:connector-curvature="0"
   style="fill:#141313"
   sodipodi:nodetypes="ccssssccc" />
	<path
   d="m 128,439.5 c 0,0 -3.75,-9.75 9.75,-8.5 13.5,1.25 34.75,13.75 47.5,40.25 12.75,26.5 14.25,36.25 15.25,40.75 1,4.5 3,7.25 -4,14.625 -7,7.375 -11.5,12 -12.5,14.625 -1,2.625 -4.375,5.125 -8,0 -3.625,-5.125 -23.625,-41.625 -28,-51.25 -4.375,-9.625 -20,-50.5 -20,-50.5 z"
   id="path14427"
   inkscape:connector-curvature="0"
   style="fill:#141315" />
	<path
   d="m 47.002,409.977 c 0,0 -11.377,3.023 -17.002,16.273 -5.625,13.25 -9,28.25 -11.125,37.375 -2.125,9.125 -4.125,27.75 -5.125,37.625 -1,9.875 -1,26.125 -4.75,30.75 -3.75,4.625 -2.875,10.5 -9,12.625 v -3.375 c 0,0 4.75,-3.75 5.875,-6.625 1.125,-2.875 3.25,-4.125 3.75,-14 0.5,-9.875 2.125,-24.125 4.75,-38.125 2.625,-14 4,-30.125 11,-50.625 7,-20.5 17.469,-22.295 17.469,-22.295 0,0 2.525,0.241 4.158,0.397 z"
   id="path14429"
   inkscape:connector-curvature="0"
   style="fill:#050708" />
	<path
   d="m 19.75,409.58 c 0,0 -4.5,16.17 -19.75,35.42 v -5.875 c 0,0 12.875,-18.215 19.75,-29.545 z"
   id="path14431"
   inkscape:connector-curvature="0"
   style="fill:#060808" />
	<path
   d="M 112.785,397.814 172,548.75 c 0,0 20,5 32.75,25.25 12.75,20.25 36.25,64.5 48.5,91.5 12.25,27 35.75,86 38.25,102.5 h -2.25 c 0,0 -10.224,-37.373 -33,-90 -22.776,-52.627 -51.75,-111 -86,-127 l -60.706,-151.419 3.241,-1.767 z"
   id="path14433"
   inkscape:connector-curvature="0"
   style="fill:#050809" />
	<path
   d="m 117.75,514.25 c 0,0 9.583,49.417 19.583,88.084 10,38.667 22.333,81.333 31.333,98.333 0,0 -18,28.999 7.667,67.333 h 3.542 c 0,0 -28.042,-31.5 -7.875,-68 0,0 -15,-35 -27.25,-83 -12.25,-48 -23.25,-102.75 -27,-102.75 z"
   id="path14435"
   inkscape:connector-curvature="0"
   style="fill:#080907" />
	<path
   d="m 133,470.833 68.125,184.917 c 0,0 6.875,-3.749 15.042,11.084 8.167,14.833 30.583,73.666 35.083,101.166 h -2.333 c 0,0 -26.123,-112.5 -48.395,-109.5 0,0 -71.592,-185.073 -67.522,-187.667 z"
   id="path14437"
   inkscape:connector-curvature="0"
   style="fill:#080607" />
	<path
   d="m 163.667,768 c 0,0 -17.167,-12.999 -23.167,-28.499 0,0 0.167,14.498 4.5,28.499 h 2.333 c 0,0 -2.833,-6.832 -3.833,-16.999 0,0 7,10.498 14.667,16.999 h 5.5 z"
   id="path14439"
   inkscape:connector-curvature="0"
   style="fill:#070507" />
<path
   d="m 3154.4151,678.89392 c 0,0 0.667,-2.5 0.667,-11.5 0,0 20,-15.667 67.333,-15 47.333,0.667 51.333,6.999 69.333,7.333 18,0.334 28.667,0.668 34.333,1.334 5.666,0.666 5.334,-0.522 11.667,4.905 6.333,5.427 18.333,15.761 18.333,15.761 0,0 16.666,24 35.333,46.667 18.667,22.667 55.667,81.667 57.667,99 l -23.417,-0.096 -271.249,-148.404 z"
   id="path14405-3"
   inkscape:connector-curvature="0"
   style="fill:#1e2325" /><path
   d="m 3123.9151,827.39392 c 0,0 23,-85.5 22,-105.5 0,0 7,-33 8.5,-43 0,0 57.001,-3.499 79,2.167 21.999,5.666 98,27.332 102,28.999 4,1.667 8.001,1.167 11,6.834 2.999,5.667 18.25,25.5 28.5,38.5 10.25,13 19.5,29 30.5,42.75 11,13.75 20.25,29.154 20.25,29.154 l -301.75,0.096 z"
   id="path14407-4"
   inkscape:connector-curvature="0"
   style="fill:#141414" /><path
   d="m 3372.7491,789.89392 c -4.5,-14.833 -11.668,-31.235 -13.834,-37.284 -2.166,-6.049 -9,-29.715 -11.167,-36.049 -2.167,-6.334 -0.979,-8.955 -21.958,-14.167 -20.979,-5.212 -26.583,-9.625 -33.917,-14.375 -1.502,-0.973 -4.39,-2.509 -8.354,-4.336 3.75,-2.097 7.2,-4.096 10.138,-5.905 11.294,4.127 17.382,7.366 17.382,7.366 -4.948,-3.268 -10.254,-6.05 -15.69,-8.425 4.584,-2.912 7.587,-5.232 7.899,-6.492 0,0 -4.228,2.388 -9.665,5.736 -4.383,-1.834 -8.833,-3.408 -13.239,-4.761 17.453,-7.869 26.741,-11.138 26.741,-11.138 l -5.337,-0.134 c 0,0 -10.866,4.44 -24.586,10.33 -24.205,-6.895 -46.123,-7.242 -46.123,-7.242 16.78,2.096 31.254,5.258 43.112,8.539 -3.271,1.412 -6.66,2.89 -10.076,4.397 -16.531,-5.701 -38.306,-11.218 -60.411,-11.812 0,0 32.6,5.009 57.051,13.301 -5.792,2.578 -11.555,5.205 -16.801,7.699 -23.667,11.25 -56.667,35.083 -67.833,43.75 -11.166,8.667 -16.833,23.833 -20.333,40.167 -3.5,16.334 -9.5,58.333 -9.5,58.333 h 4 c 0.667,-9.5 4.167,-34.5 7.167,-49 3,-14.5 7.5,-36.667 15.5,-43.333 8,-6.666 21.167,-18 36.333,-26.5 13.592,-7.618 34.279,-19.646 55.073,-29.847 2.354,0.862 4.609,1.756 6.719,2.68 2.975,1.304 5.555,2.438 7.809,3.432 -7.64,3.79 -16.725,7.151 -24.559,11.068 -10.5,5.25 -22.875,13.375 -30.625,16.5 -7.75,3.125 -8.875,8 -14.875,15.75 -6,7.75 -15.75,19.252 -22.875,28.252 -7.125,9 -7.5,15.375 -12.375,31.875 -4.875,16.5 -9.875,34.625 -9.875,39.125 h 3.75 c 0,0 7.25,-31.75 11.125,-44.125 3.875,-12.375 7.375,-21.625 11.625,-28 4.25,-6.375 25.125,-32.125 27.5,-35.5 2.375,-3.375 6.625,-4.875 26.25,-15.125 9.759,-5.097 24.194,-12.471 36.387,-19.176 14.609,6.464 13.907,6.426 16.988,8.551 3.625,2.5 32,11.25 37.125,12.5 5.125,1.25 7.75,1.125 10.625,11.125 2.875,10 7.708,27.251 12.375,37.751 4.667,10.5 12.001,31 14.334,41.333 2.333,10.333 5.166,20.499 5.833,30.666 h 2.5 c 0,0 -2.833,-22.667 -7.333,-37.5 z m -105.249,-112.729 c 1.349,-0.648 2.696,-1.289 4.04,-1.918 2.068,-0.967 4.047,-1.881 5.943,-2.746 5.367,1.559 10.139,3.121 14.28,4.593 -1.85,1.157 -3.79,2.396 -5.723,3.675 -1.202,0.795 -2.496,1.561 -3.85,2.309 -4.005,-1.802 -8.98,-3.846 -14.69,-5.913 z"
   id="path14409-3"
   inkscape:connector-curvature="0"
   style="fill:#060808" /><path
   d="m 3339.9151,674.08192 c 0,0 13,24.812 18.667,33.646 5.667,8.834 9.001,18.334 12.667,22.667 3.666,4.333 5.191,11.337 10.096,24.752 4.905,13.415 13.736,39.081 25.07,72.247 h -4.166 c 0,0 -14,-38.667 -19.5,-55.667 -5.5,-17 -11.167,-35.333 -16.667,-44.333 -5.5,-9 -28.272,-48.863 -26.167,-53.312 z"
   id="path14411-5"
   inkscape:connector-curvature="0"
   style="fill:#030505" /></g>

</svg>