<?xml version="1.0" encoding="UTF-8" standalone="no"?>
<!-- Generator: Adobe Illustrator 15.1.0, SVG Export Plug-In . SVG Version: 6.00 Build 0)  -->

<svg
   xmlns:osb="http://www.openswatchbook.org/uri/2009/osb"
   xmlns:dc="http://purl.org/dc/elements/1.1/"
   xmlns:cc="http://creativecommons.org/ns#"
   xmlns:rdf="http://www.w3.org/1999/02/22-rdf-syntax-ns#"
   xmlns:svg="http://www.w3.org/2000/svg"
   xmlns="http://www.w3.org/2000/svg"
   xmlns:xlink="http://www.w3.org/1999/xlink"
   xmlns:sodipodi="http://sodipodi.sourceforge.net/DTD/sodipodi-0.dtd"
   xmlns:inkscape="http://www.inkscape.org/namespaces/inkscape"
   version="1.1"
   id="Derpy_Hooves_1_"
   x="0px"
   y="0px"
   width="1138.6655"
   height="978.6543"
   viewBox="0 0 1138.6655 978.6543"
   enable-background="new 0 0 3000 3600"
   xml:space="preserve"
   inkscape:version="0.48.2 r9819"
   sodipodi:docname="DerpyBag02.svg"
   inkscape:export-filename="E:\Moje Obrazy\DerpyBag02.png"
   inkscape:export-xdpi="395.19946"
   inkscape:export-ydpi="395.19946"><metadata
   id="metadata255"><rdf:RDF><cc:Work
       rdf:about=""><dc:format>image/svg+xml</dc:format><dc:type
         rdf:resource="http://purl.org/dc/dcmitype/StillImage" /><dc:title></dc:title></cc:Work></rdf:RDF></metadata><defs
   id="defs253"><linearGradient
     id="linearGradient4380"
     osb:paint="solid"
     gradientTransform="translate(4241.297,-1870.4835)"><stop
       style="stop-color:#c3a751;stop-opacity:1;"
       offset="0"
       id="stop4382" /></linearGradient><linearGradient
     id="linearGradient4372"
     osb:paint="solid"
     gradientTransform="translate(2120.6485,-935.24173)"><stop
       style="stop-color:#ddc87d;stop-opacity:1;"
       offset="0"
       id="stop4374" /></linearGradient><linearGradient
     id="linearGradient4300"
     osb:paint="solid"
     gradientTransform="translate(-5230.0124,6663.8773)"><stop
       style="stop-color:#7f693c;stop-opacity:1;"
       offset="0"
       id="stop4302" /></linearGradient><linearGradient
     id="linearGradient4292"
     osb:paint="solid"
     gradientTransform="translate(2120.6485,-935.24173)"><stop
       style="stop-color:#ad8847;stop-opacity:1;"
       offset="0"
       id="stop4294" /></linearGradient><linearGradient
     id="linearGradient4280"
     osb:paint="solid"><stop
       style="stop-color:#d29275;stop-opacity:1;"
       offset="0"
       id="stop4282" /></linearGradient><linearGradient
     id="linearGradient4272"
     osb:paint="solid"><stop
       style="stop-color:#c6a65c;stop-opacity:1;"
       offset="0"
       id="stop4274" /></linearGradient><linearGradient
     id="linearGradient4264"
     osb:paint="solid"><stop
       style="stop-color:#968048;stop-opacity:1;"
       offset="0"
       id="stop4266" /></linearGradient><linearGradient
     id="linearGradient4256"
     osb:paint="solid"><stop
       style="stop-color:#d3c07b;stop-opacity:1;"
       offset="0"
       id="stop4258" /></linearGradient><linearGradient
     id="linearGradient4248"
     osb:paint="solid"><stop
       style="stop-color:#b9954f;stop-opacity:1;"
       offset="0"
       id="stop4250" /></linearGradient><linearGradient
     id="linearGradient4182"
     osb:paint="solid"
     gradientTransform="translate(7505.0848,-1098.3051)"><stop
       style="stop-color:#1f5129;stop-opacity:1;"
       offset="0"
       id="stop4184" /></linearGradient><linearGradient
     id="linearGradient4174"
     osb:paint="solid"
     gradientTransform="translate(1876.2712,-274.57627)"><stop
       style="stop-color:#15371c;stop-opacity:1;"
       offset="0"
       id="stop4176" /></linearGradient><linearGradient
     id="linearGradient4166"
     osb:paint="solid"
     gradientTransform="translate(5628.8136,-823.72881)"><stop
       style="stop-color:#4d9a55;stop-opacity:1;"
       offset="0"
       id="stop4168" /></linearGradient><linearGradient
     inkscape:collect="always"
     xlink:href="#linearGradient4248"
     id="linearGradient4252"
     x1="-1032.5212"
     y1="2029.052"
     x2="-996.7691"
     y2="2029.052"
     gradientUnits="userSpaceOnUse" /><linearGradient
     inkscape:collect="always"
     xlink:href="#linearGradient4256"
     id="linearGradient4260"
     x1="-1012.5"
     y1="1965.1747"
     x2="-983.89832"
     y2="1965.1747"
     gradientUnits="userSpaceOnUse" /><linearGradient
     inkscape:collect="always"
     xlink:href="#linearGradient4264"
     id="linearGradient4268"
     x1="-1026.8009"
     y1="1951.3506"
     x2="-961.9704"
     y2="1951.3506"
     gradientUnits="userSpaceOnUse" /><linearGradient
     inkscape:collect="always"
     xlink:href="#linearGradient4272"
     id="linearGradient4276"
     x1="-990.57202"
     y1="1961.1229"
     x2="-909.53387"
     y2="1961.1229"
     gradientUnits="userSpaceOnUse" /><linearGradient
     inkscape:collect="always"
     xlink:href="#linearGradient4280"
     id="linearGradient4284"
     x1="-1036.3347"
     y1="1919.6504"
     x2="-1009.6398"
     y2="1919.6504"
     gradientUnits="userSpaceOnUse" /><linearGradient
     inkscape:collect="always"
     xlink:href="#linearGradient4292"
     id="linearGradient4296"
     x1="-943.85596"
     y1="1559.7457"
     x2="-797.03394"
     y2="1559.7457"
     gradientUnits="userSpaceOnUse" /><linearGradient
     inkscape:collect="always"
     xlink:href="#linearGradient4300"
     id="linearGradient4304"
     x1="-1029.661"
     y1="1526.3771"
     x2="-877.11865"
     y2="1526.3771"
     gradientUnits="userSpaceOnUse" /><linearGradient
     inkscape:collect="always"
     xlink:href="#linearGradient4372"
     id="linearGradient4376"
     x1="-2350.3848"
     y1="1146.7739"
     x2="-2125.9607"
     y2="1146.7739"
     gradientUnits="userSpaceOnUse" /><linearGradient
     inkscape:collect="always"
     xlink:href="#linearGradient4380"
     id="linearGradient4384"
     x1="-2280.2734"
     y1="1177.7847"
     x2="-2028.8834"
     y2="1177.7847"
     gradientUnits="userSpaceOnUse" /><linearGradient
     id="linearGradient4691"
     osb:paint="solid"
     gradientTransform="translate(-3428.1516,2601.2111)"><stop
       style="stop-color:#b98d3a;stop-opacity:1;"
       offset="0"
       id="stop4693" /></linearGradient><linearGradient
     id="linearGradient4709"
     osb:paint="solid"
     gradientTransform="translate(-3428.1516,2601.2111)"><stop
       style="stop-color:#ddc87d;stop-opacity:1;"
       offset="0"
       id="stop4711" /></linearGradient><linearGradient
     id="linearGradient4721"
     osb:paint="solid"><stop
       style="stop-color:#8a6d31;stop-opacity:1;"
       offset="0"
       id="stop4723" /></linearGradient><linearGradient
     id="linearGradient4195"
     osb:paint="solid"><stop
       style="stop-color:#8a6d31;stop-opacity:1;"
       offset="0"
       id="stop4197" /></linearGradient><linearGradient
     id="linearGradient4199"
     osb:paint="solid"><stop
       style="stop-color:#8a6d31;stop-opacity:1;"
       offset="0"
       id="stop4201" /></linearGradient><linearGradient
     id="linearGradient4203"
     osb:paint="solid"><stop
       style="stop-color:#8a6d31;stop-opacity:1;"
       offset="0"
       id="stop4205" /></linearGradient><linearGradient
     id="linearGradient4729"
     osb:paint="solid"
     gradientTransform="translate(-3428.1516,2601.2111)"><stop
       style="stop-color:#d3b14a;stop-opacity:1;"
       offset="0"
       id="stop4731" /></linearGradient><linearGradient
     id="linearGradient4699"
     osb:paint="solid"><stop
       style="stop-color:#da9361;stop-opacity:1;"
       offset="0"
       id="stop4701" /></linearGradient><linearGradient
     id="linearGradient4211"
     osb:paint="solid"><stop
       style="stop-color:#b98d3a;stop-opacity:1;"
       offset="0"
       id="stop4213" /></linearGradient><linearGradient
     id="linearGradient4215"
     osb:paint="solid"><stop
       style="stop-color:#da9361;stop-opacity:1;"
       offset="0"
       id="stop4217" /></linearGradient><linearGradient
     id="linearGradient4219"
     osb:paint="solid"><stop
       style="stop-color:#da9361;stop-opacity:1;"
       offset="0"
       id="stop4221" /></linearGradient><linearGradient
     id="linearGradient4223"
     osb:paint="solid"><stop
       style="stop-color:#b98d3a;stop-opacity:1;"
       offset="0"
       id="stop4225" /></linearGradient><linearGradient
     id="linearGradient4227"
     osb:paint="solid"><stop
       style="stop-color:#da9361;stop-opacity:1;"
       offset="0"
       id="stop4229" /></linearGradient><linearGradient
     id="linearGradient4231"
     osb:paint="solid"><stop
       style="stop-color:#b98d3a;stop-opacity:1;"
       offset="0"
       id="stop4233" /></linearGradient><linearGradient
     id="linearGradient4235"
     osb:paint="solid"><stop
       style="stop-color:#b98d3a;stop-opacity:1;"
       offset="0"
       id="stop4237" /></linearGradient><linearGradient
     id="linearGradient4691-1"
     osb:paint="solid"
     gradientTransform="matrix(0.900222,0,0,0.900222,-799.13864,1170.2835)"><stop
       style="stop-color:#b98d3a;stop-opacity:1;"
       offset="0"
       id="stop4693-7" /></linearGradient><linearGradient
     id="linearGradient4709-4"
     osb:paint="solid"
     gradientTransform="matrix(0.900222,0,0,0.900222,-799.13864,1170.2835)"><stop
       style="stop-color:#ecd582;stop-opacity:1;"
       offset="0"
       id="stop4711-0" /></linearGradient><linearGradient
     id="linearGradient4721-9"
     osb:paint="solid"
     gradientTransform="matrix(0.65674762,0,0,0.65674762,6169.9036,-91902.215)"><stop
       style="stop-color:#8a6d31;stop-opacity:1;"
       offset="0"
       id="stop4723-4" /></linearGradient><linearGradient
     id="linearGradient4272-8"
     osb:paint="solid"><stop
       style="stop-color:#8a6d31;stop-opacity:1;"
       offset="0"
       id="stop4274-8" /></linearGradient><linearGradient
     id="linearGradient4276-2"
     osb:paint="solid"><stop
       style="stop-color:#8a6d31;stop-opacity:1;"
       offset="0"
       id="stop4278" /></linearGradient><linearGradient
     id="linearGradient4280-4"
     osb:paint="solid"><stop
       style="stop-color:#8a6d31;stop-opacity:1;"
       offset="0"
       id="stop4282-5" /></linearGradient><linearGradient
     id="linearGradient4729-5"
     osb:paint="solid"
     gradientTransform="matrix(1.8795145,0,0,1.8795145,-3579.8694,-5881.17)"><stop
       style="stop-color:#d3b14a;stop-opacity:1;"
       offset="0"
       id="stop4731-1" /></linearGradient><linearGradient
     id="linearGradient4699-7"
     osb:paint="solid"><stop
       style="stop-color:#da9361;stop-opacity:1;"
       offset="0"
       id="stop4701-1" /></linearGradient><linearGradient
     id="linearGradient4288"
     osb:paint="solid"><stop
       style="stop-color:#b98d3a;stop-opacity:1;"
       offset="0"
       id="stop4290" /></linearGradient><linearGradient
     id="linearGradient4292-1"
     osb:paint="solid"><stop
       style="stop-color:#da9361;stop-opacity:1;"
       offset="0"
       id="stop4294-5" /></linearGradient><linearGradient
     id="linearGradient4296-2"
     osb:paint="solid"><stop
       style="stop-color:#da9361;stop-opacity:1;"
       offset="0"
       id="stop4298" /></linearGradient><linearGradient
     id="linearGradient4300-7"
     osb:paint="solid"><stop
       style="stop-color:#b98d3a;stop-opacity:1;"
       offset="0"
       id="stop4302-6" /></linearGradient><linearGradient
     id="linearGradient4304-1"
     osb:paint="solid"><stop
       style="stop-color:#da9361;stop-opacity:1;"
       offset="0"
       id="stop4306" /></linearGradient><linearGradient
     id="linearGradient4308"
     osb:paint="solid"><stop
       style="stop-color:#b98d3a;stop-opacity:1;"
       offset="0"
       id="stop4310" /></linearGradient><linearGradient
     id="linearGradient4312"
     osb:paint="solid"><stop
       style="stop-color:#b98d3a;stop-opacity:1;"
       offset="0"
       id="stop4314" /></linearGradient></defs><sodipodi:namedview
   pagecolor="#ffffff"
   bordercolor="#666666"
   borderopacity="1"
   objecttolerance="10"
   gridtolerance="10"
   guidetolerance="10"
   inkscape:pageopacity="0"
   inkscape:pageshadow="2"
   inkscape:window-width="1280"
   inkscape:window-height="977"
   id="namedview251"
   showgrid="false"
   fit-margin-top="20"
   fit-margin-right="20"
   fit-margin-bottom="20"
   fit-margin-left="20"
   inkscape:zoom="0.092709555"
   inkscape:cx="1059.5579"
   inkscape:cy="473.1812"
   inkscape:window-x="-4"
   inkscape:window-y="-4"
   inkscape:window-maximized="1"
   inkscape:current-layer="layer3" />






<g
   inkscape:groupmode="layer"
   id="layer3"
   inkscape:label="Layer#2"
   transform="translate(-457.86131,281.93552)"><g
     id="g4212"><path
       inkscape:connector-curvature="0"
       id="path4741-4"
       d="m 808.5686,648.22559 -127.2793,-340.82547 659.0236,128.69343 -59.397,216.37468 z"
       style="fill:url(#linearGradient4691-1);stroke:none" /><path
       style="fill:url(#linearGradient4709-4);stroke:none"
       d="m 788.0338,337.23309 c -56.4183,55.1976 -222.1222,65.64789 -186,-90 C 424.1708,201.46206 490.0214,-44.7762 679.1049,-1.9385 c -6.0947,-326.759 339.9827,-254.7172 363.9289,-160.8284 123.5698,-161.9792 310.2934,2.2312 291.8284,102 196.7906,-66.492 320.9454,210.11559 117.1716,299.99999 57.6794,70.15828 -0.7175,261.33221 -142,190 -36.5871,35.29686 -158.732,72.77447 -210,-36 -95.4303,86.95574 -238.054,77.33079 -312,-56 z"
       id="path4705-2"
       inkscape:connector-curvature="0"
       sodipodi:nodetypes="ccccccccc" /><path
       inkscape:connector-curvature="0"
       id="path4681-2"
       d="m 725.13,378.1108 83.4386,278.60007 475.1757,0 53.7401,-206.47518"
       style="fill:none;stroke:url(#linearGradient4721-9);stroke-width:40;stroke-linecap:round;stroke-linejoin:round;stroke-miterlimit:4;stroke-opacity:1;stroke-dasharray:none" /><path
       inkscape:connector-curvature="0"
       id="path4683-2"
       d="M 893.4214,651.05401 906.1493,443.16462"
       style="fill:none;stroke:url(#linearGradient4721-9);stroke-width:20;stroke-linecap:butt;stroke-linejoin:miter;stroke-miterlimit:4;stroke-opacity:1;stroke-dasharray:none" /><path
       inkscape:connector-curvature="0"
       id="path4685-1"
       d="M 1046.1564,653.88244 995.2447,454.47833"
       style="fill:none;stroke:url(#linearGradient4721-9);stroke-width:20;stroke-linecap:butt;stroke-linejoin:miter;stroke-miterlimit:4;stroke-opacity:1;stroke-dasharray:none" /><path
       inkscape:connector-curvature="0"
       id="path4687-6"
       d="m 1183.3352,649.6398 35.3553,-186.67619"
       style="fill:none;stroke:url(#linearGradient4721-9);stroke-width:20;stroke-linecap:butt;stroke-linejoin:miter;stroke-miterlimit:4;stroke-opacity:1;stroke-dasharray:none" /><path
       sodipodi:nodetypes="ssscsscsscscscsscsscssscsssscssscsscscscscsscsscsss"
       inkscape:connector-curvature="0"
       id="path4661-8"
       d="m 883.3776,-261.9103 c -11.9235,-0.1629 -23.9954,0.4597 -36.0626,1.9687 -48.2686,6.036 -96.8989,26.8439 -132.5312,68.9063 -32.2206,38.035 -52.9322,92.5979 -55.4375,165.6874 -90.6734,-9.9693 -156.6744,43.6386 -175.5937,109.2188 -10.2843,35.6482 -7.4394,74.91595 11.1874,108.75 16.2633,29.54077 44.6645,54.27766 84.1876,68.46875 -5.015,33.77167 -0.9072,61.75104 11.375,83.46875 14.4504,25.55182 39.3481,40.35608 65.4062,46.25 43.477,9.83378 91.8675,-0.46704 126.9062,-23.875 39.0962,58.78426 93.3337,92.46261 150.3126,100.6875 55.6443,8.03226 113.104,-7.82513 161.3124,-43.875 29.9278,44.33802 75.1047,61.68276 116.1876,61.5 40.9058,-0.18198 77.9429,-14.06058 102.5937,-32.625 34.4479,14.44357 66.7012,15.55681 93.625,5.65625 30.0834,-11.06243 52.2322,-34.54883 66.5,-61.6875 24.4528,-46.51148 29.4747,-105.43251 7.4063,-149.375 43.2815,-24.1891 71.5899,-58.04408 85.375,-95.15625 15.8724,-42.7321 12.8217,-88.9201 -4.0313,-129.1875 -30.8457,-73.7004 -110.8607,-128.6188 -206.6563,-109.5938 -2.3025,-22.3815 -11.089,-44.7491 -24.0624,-65.4687 -18.7166,-29.8916 -46.36,-56.8183 -79.4376,-75.2187 -33.0775,-18.4005 -72.0486,-28.211 -111.9062,-21.5 -32.234,5.4273 -64.278,22.1175 -93.0312,51.3437 -14.8748,-18.6651 -37.7626,-33.132 -64.125,-44.0937 -29.2665,-12.1693 -63.7298,-19.7615 -99.5,-20.25 z m -0.5626,40.0624 c 30.5092,0.4945 60.2917,7.306 84.7188,17.125 36.3433,14.609 59.7994,42.5351 75.8438,69.4376 22.5414,-34.48 64.0443,-67.2282 103.3124,-74.1876 29.2866,-5.1904 59.0711,2.1555 85.8126,17.0313 26.7414,14.8758 49.729,37.7487 64.9687,61.4687 23.9679,37.3052 22.5736,66.3284 11.5313,100.0626 92.8825,-47.6319 188.7971,-7.4158 216.2187,69.2187 11.6172,32.4663 16.0189,67.7088 3.4063,99.8125 -17.8473,45.4281 -55.8443,75.71036 -108.7813,93.4375 61.4149,39.89256 42.3832,165.62532 -26.8125,189.1875 -31.8071,10.8308 -66.0065,6.12286 -86.6562,-15.78125 -22.2669,27.26982 -62.3141,42.42227 -95.9376,40.28125 -67.9526,-4.32697 -84.4708,-34.37625 -103.875,-85.03125 -39.047,46.04864 -112.1475,78.06383 -167.7187,67.84375 -82.6164,-15.19396 -122.9368,-57.33591 -146.0313,-123.46875 -27.9665,44.50922 -85.4759,58.74223 -128.0624,47.21875 -17.7199,-4.79483 -33.3061,-11.38735 -39.4063,-26.9375 -14.4869,-36.92874 -7.4935,-57.49747 0.5937,-92.125 -46.0178,-5.98976 -80.3626,-28.80957 -95.9687,-59.4375 -12.3708,-24.27834 -17.3693,-52.7297 -7.7813,-78.3437 34.5327,-92.2534 104.5569,-88.308 177.375,-71.75 -4.9325,-67.4256 7.501,-142.4183 45.7188,-188.4063 27.9747,-33.6624 66.5179,-50.0002 107,-55.0625 10.1205,-1.2656 20.3615,-1.7586 30.5312,-1.5938 z"
       style="font-size:medium;font-style:normal;font-variant:normal;font-weight:normal;font-stretch:normal;text-indent:0;text-align:start;text-decoration:none;line-height:normal;letter-spacing:normal;word-spacing:normal;text-transform:none;direction:ltr;block-progression:tb;writing-mode:lr-tb;text-anchor:start;baseline-shift:baseline;color:#000000;fill:url(#linearGradient4729-5);fill-opacity:1;stroke:none;stroke-width:40;marker:none;visibility:visible;display:inline;overflow:visible;enable-background:accumulate;font-family:Sans;-inkscape-font-specification:Sans" /><path
       transform="matrix(0.72164948,0,0,0.72164948,-1576.6349,493.27986)"
       d="m 3645.8426,-549.23468 c 0,37.88085 -35.1406,68.58936 -78.4888,68.58936 -43.3482,0 -78.4889,-30.70851 -78.4889,-68.58936 0,-37.88086 35.1407,-68.58936 78.4889,-68.58936 43.3482,0 78.4888,30.7085 78.4888,68.58936 z"
       sodipodi:ry="68.589355"
       sodipodi:rx="78.488853"
       sodipodi:cy="-549.23468"
       sodipodi:cx="3567.3538"
       id="path4665-5"
       style="fill:url(#linearGradient4699-7);fill-opacity:1;stroke:none"
       sodipodi:type="arc" /><path
       sodipodi:type="arc"
       style="fill:url(#linearGradient4691-1);fill-opacity:1;stroke:none"
       id="path4667-7"
       sodipodi:cx="3567.3538"
       sodipodi:cy="-549.23468"
       sodipodi:rx="78.488853"
       sodipodi:ry="68.589355"
       d="m 3645.8426,-549.23468 c 0,37.88085 -35.1406,68.58936 -78.4888,68.58936 -43.3482,0 -78.4889,-30.70851 -78.4889,-68.58936 0,-37.88086 35.1407,-68.58936 78.4889,-68.58936 43.3482,0 78.4888,30.7085 78.4888,68.58936 z"
       transform="matrix(0.6307691,-0.35058282,0.35058282,0.6307691,-1203.7279,1519.8272)" /><path
       transform="matrix(-0.10762497,-0.70318977,0.70318977,-0.10762497,1966.9957,2357.2032)"
       d="m 3645.8426,-549.23468 c 0,37.88085 -35.1406,68.58936 -78.4888,68.58936 -43.3482,0 -78.4889,-30.70851 -78.4889,-68.58936 0,-37.88086 35.1407,-68.58936 78.4889,-68.58936 43.3482,0 78.4888,30.7085 78.4888,68.58936 z"
       sodipodi:ry="68.589355"
       sodipodi:rx="78.488853"
       sodipodi:cy="-549.23468"
       sodipodi:cx="3567.3538"
       id="path4669-6"
       style="fill:url(#linearGradient4699-7);fill-opacity:1;stroke:none"
       sodipodi:type="arc" /><path
       sodipodi:type="arc"
       style="fill:url(#linearGradient4699-7);fill-opacity:1;stroke:none"
       id="path4671-1"
       sodipodi:cx="3567.3538"
       sodipodi:cy="-549.23468"
       sodipodi:rx="78.488853"
       sodipodi:ry="68.589355"
       d="m 3645.8426,-549.23468 c 0,37.88085 -35.1406,68.58936 -78.4888,68.58936 -43.3482,0 -78.4889,-30.70851 -78.4889,-68.58936 0,-37.88086 35.1407,-68.58936 78.4889,-68.58936 43.3482,0 78.4888,30.7085 78.4888,68.58936 z"
       transform="matrix(0.51923667,-0.3789405,0.3789405,0.51923667,-423.789,1955.6145)" /><path
       transform="matrix(0.63614195,0.09233654,-0.09233654,0.63614195,-1432.256,275.51563)"
       d="m 3645.8426,-549.23468 c 0,37.88085 -35.1406,68.58936 -78.4888,68.58936 -43.3482,0 -78.4889,-30.70851 -78.4889,-68.58936 0,-37.88086 35.1407,-68.58936 78.4889,-68.58936 43.3482,0 78.4888,30.7085 78.4888,68.58936 z"
       sodipodi:ry="68.589355"
       sodipodi:rx="78.488853"
       sodipodi:cy="-549.23468"
       sodipodi:cx="3567.3538"
       id="path4673-8"
       style="fill:url(#linearGradient4691-1);fill-opacity:1;stroke:none"
       sodipodi:type="arc" /><path
       sodipodi:type="arc"
       style="fill:url(#linearGradient4699-7);fill-opacity:1;stroke:none"
       id="path4675-9"
       sodipodi:cx="3567.3538"
       sodipodi:cy="-549.23468"
       sodipodi:rx="78.488853"
       sodipodi:ry="68.589355"
       d="m 3645.8426,-549.23468 c 0,37.88085 -35.1406,68.58936 -78.4888,68.58936 -43.3482,0 -78.4889,-30.70851 -78.4889,-68.58936 0,-37.88086 35.1407,-68.58936 78.4889,-68.58936 43.3482,0 78.4888,30.7085 78.4888,68.58936 z"
       transform="matrix(0.26013965,-0.62770541,0.62770541,0.26013965,130.0602,2503.4383)" /><path
       transform="matrix(0.65838013,0.05710021,-0.0651026,0.57745224,-1176.6518,248.24243)"
       d="m 3645.8426,-549.23468 c 0,37.88085 -35.1406,68.58936 -78.4888,68.58936 -43.3482,0 -78.4889,-30.70851 -78.4889,-68.58936 0,-37.88086 35.1407,-68.58936 78.4889,-68.58936 43.3482,0 78.4888,30.7085 78.4888,68.58936 z"
       sodipodi:ry="68.589355"
       sodipodi:rx="78.488853"
       sodipodi:cy="-549.23468"
       sodipodi:cx="3567.3538"
       id="path4677-2"
       style="fill:url(#linearGradient4691-1);fill-opacity:1;stroke:none"
       sodipodi:type="arc" /><path
       sodipodi:type="arc"
       style="fill:url(#linearGradient4691-1);fill-opacity:1;stroke:none"
       id="path4679-7"
       sodipodi:cx="3567.3538"
       sodipodi:cy="-549.23468"
       sodipodi:rx="78.488853"
       sodipodi:ry="68.589355"
       d="m 3645.8426,-549.23468 c 0,37.88085 -35.1406,68.58936 -78.4888,68.58936 -43.3482,0 -78.4889,-30.70851 -78.4889,-68.58936 0,-37.88086 35.1407,-68.58936 78.4889,-68.58936 43.3482,0 78.4888,30.7085 78.4888,68.58936 z"
       transform="matrix(-0.08712713,-0.56926291,0.56926291,-0.08712713,2024.3606,2058.6832)" /></g></g></svg>